STARTFONT 2.1
FONT -FontForge-ITC Benguiat Gothic Std-Bold-R-Normal--36-350-75-75-P-190-ISO8859-1
SIZE 35 75 75
FONTBOUNDINGBOX 42 42 -6 -9
COMMENT "Generated by fontforge, http://fontforge.sourceforge.net"
COMMENT "Copyright 1990, 1995 , 2002Adobe Systems Incorporated. All Rights Reserved. ITC Benguiat Gothic is a registered trademark of International Typeface Corporation."
STARTPROPERTIES 40
FOUNDRY "FontForge"
FAMILY_NAME "ITC Benguiat Gothic Std"
WEIGHT_NAME "Bold"
SLANT "R"
SETWIDTH_NAME "Normal"
ADD_STYLE_NAME ""
PIXEL_SIZE 36
POINT_SIZE 350
RESOLUTION_X 75
RESOLUTION_Y 75
SPACING "P"
AVERAGE_WIDTH 190
CHARSET_REGISTRY "ISO8859"
CHARSET_ENCODING "1"
FONTNAME_REGISTRY ""
CHARSET_COLLECTIONS "ISOLatin1Encoding"
FONT_NAME "BenguiatGothicStd-Bold"
FACE_NAME "ITC Benguiat Gothic Std Bold"
COPYRIGHT "Copyright 1990, 1995 , 2002Adobe Systems Incorporated. All Rights Reserved. ITC Benguiat Gothic is a registered trademark of International Typeface Corporation."
FONT_VERSION "001.001"
FONT_ASCENT 25
FONT_DESCENT 11
UNDERLINE_POSITION -4
UNDERLINE_THICKNESS 2
X_HEIGHT 17
CAP_HEIGHT 24
RAW_ASCENT 691
RAW_DESCENT 309
NORM_SPACE 11
RELATIVE_WEIGHT 70
RELATIVE_SETWIDTH 50
SUPERSCRIPT_X 0
SUPERSCRIPT_Y 12
SUPERSCRIPT_SIZE 21
SUBSCRIPT_X 0
SUBSCRIPT_Y 2
SUBSCRIPT_SIZE 21
FIGURE_WIDTH 22
AVG_LOWERCASE_WIDTH 184
AVG_UPPERCASE_WIDTH 218
ENDPROPERTIES
CHARS 253
STARTCHAR space
ENCODING 32
SWIDTH 305 0
DWIDTH 11 0
BBX 1 1 0 0
BITMAP
00
ENDCHAR
STARTCHAR exclam
ENCODING 33
SWIDTH 333 0
DWIDTH 12 0
BBX 6 25 3 0
BITMAP
78
78
F8
F8
F8
F8
F8
78
78
78
78
78
78
78
78
78
78
30
00
00
78
FC
FC
78
78
ENDCHAR
STARTCHAR quotedbl
ENCODING 34
SWIDTH 333 0
DWIDTH 12 0
BBX 10 10 1 15
BITMAP
6180
F3C0
F3C0
F3C0
F3C0
F3C0
F3C0
F3C0
F3C0
6180
ENDCHAR
STARTCHAR numbersign
ENCODING 35
SWIDTH 611 0
DWIDTH 22 0
BBX 18 25 2 0
BITMAP
038700
078F00
078F00
078F00
070E00
070E00
070E00
7FFFC0
7FFFC0
7FFFC0
0F1E00
0E1E00
0E1C00
0E1C00
0E1C00
FFFF80
FFFF80
FFFF80
1C3C00
1C3800
1C3800
1C3800
3C3800
3C7800
3C7800
ENDCHAR
STARTCHAR dollar
ENCODING 36
SWIDTH 611 0
DWIDTH 22 0
BBX 20 31 1 -3
BITMAP
00C000
01E000
01E000
01E000
01E000
07FF00
3FFF80
7FFF80
7FFF80
F80000
F80000
FE0000
7FF800
7FFF80
1FFFC0
01FFE0
01E7E0
01E1F0
01E1F0
01E1F0
01E3E0
01E7E0
7FFFC0
FFFFC0
FFFF00
7FFC00
01E000
01E000
01E000
01E000
00E000
ENDCHAR
STARTCHAR percent
ENCODING 37
SWIDTH 944 0
DWIDTH 34 0
BBX 30 25 2 0
BITMAP
0F801800
3FC03C00
7FE03C00
FFF07C00
F8F07800
F0F8F800
F0F8F000
F0F9F000
F8F1E000
FFF3E000
7FE3C000
3FE7C000
0F8787C0
000F9FF0
000F1FF8
001F3FFC
001E3C7C
003E7C3C
003C7C3C
007C7C3C
00783C7C
00F83FFC
00F03FF8
00F01FF0
00E007C0
ENDCHAR
STARTCHAR ampersand
ENCODING 38
SWIDTH 778 0
DWIDTH 28 0
BBX 26 25 1 0
BITMAP
00F80000
03FE0000
07FF0000
0FFF0000
0F8F8000
0F0F8000
0F0F9C00
0F8FBE00
0F9F1E00
0FFF1E00
1FFE1E00
3FFC1E00
7EFC1E00
7C7E1E00
F83F9E00
F81FFE00
F80FFC00
F803FC00
FC01F800
7E01FC00
7F07FF00
3FFFFF80
1FFFDFC0
0FFF0FC0
01FC0380
ENDCHAR
STARTCHAR quotesingle
ENCODING 39
SWIDTH 222 0
DWIDTH 8 0
BBX 4 10 2 15
BITMAP
60
F0
F0
F0
F0
F0
F0
F0
F0
60
ENDCHAR
STARTCHAR parenleft
ENCODING 40
SWIDTH 389 0
DWIDTH 14 0
BBX 11 32 2 -7
BITMAP
01C0
03E0
07E0
0FC0
0F80
1F00
3E00
3E00
3C00
7C00
7800
7800
F800
F800
F800
F800
F800
F800
F800
F800
7800
7800
7C00
3C00
3E00
3E00
1F00
0F80
0FC0
07E0
03E0
01C0
ENDCHAR
STARTCHAR parenright
ENCODING 41
SWIDTH 389 0
DWIDTH 14 0
BBX 11 32 1 -7
BITMAP
7000
F800
FC00
7E00
3E00
1F00
0F00
0F80
0780
07C0
03C0
03C0
03E0
03E0
03E0
03E0
03E0
03E0
03E0
03E0
03C0
03C0
07C0
0780
0F80
0F00
1F00
3E00
7E00
FC00
F800
7000
ENDCHAR
STARTCHAR asterisk
ENCODING 42
SWIDTH 444 0
DWIDTH 16 0
BBX 12 13 2 12
BITMAP
0600
0F00
4E20
F6F0
FFF0
7FE0
0F00
7FE0
F6F0
F6F0
0F20
0F00
0600
ENDCHAR
STARTCHAR plus
ENCODING 43
SWIDTH 600 0
DWIDTH 22 0
BBX 18 18 2 0
BITMAP
01E000
01E000
01E000
01E000
01E000
01E000
01E000
FFFFC0
FFFFC0
FFFFC0
FFFFC0
01E000
01E000
01E000
01E000
01E000
01E000
01E000
ENDCHAR
STARTCHAR comma
ENCODING 44
SWIDTH 305 0
DWIDTH 11 0
BBX 6 10 2 -4
BITMAP
1C
3C
3C
7C
7C
78
F8
F0
F0
E0
ENDCHAR
STARTCHAR hyphen
ENCODING 45
SWIDTH 333 0
DWIDTH 12 0
BBX 8 4 2 7
BITMAP
FF
FF
FF
FF
ENDCHAR
STARTCHAR period
ENCODING 46
SWIDTH 305 0
DWIDTH 11 0
BBX 5 5 3 0
BITMAP
70
F8
F8
F8
70
ENDCHAR
STARTCHAR slash
ENCODING 47
SWIDTH 278 0
DWIDTH 10 0
BBX 12 25 -1 0
BITMAP
0060
00F0
01F0
01F0
01E0
03E0
03E0
03C0
07C0
0780
0F80
0F80
0F00
1F00
1F00
1E00
3E00
3C00
7C00
7C00
7800
F800
F800
F000
6000
ENDCHAR
STARTCHAR zero
ENCODING 48
SWIDTH 611 0
DWIDTH 22 0
BBX 20 25 1 0
BITMAP
01F800
07FE00
0FFF00
1FFF80
3F9FC0
3E07C0
7C03E0
7C03E0
7801E0
F801F0
F801F0
F801F0
F801F0
F801F0
F801F0
F801F0
F801E0
7C03E0
7C03E0
3E07C0
3F9FC0
1FFF80
0FFF00
07FE00
01F800
ENDCHAR
STARTCHAR one
ENCODING 49
SWIDTH 611 0
DWIDTH 22 0
BBX 17 25 3 0
BITMAP
01E000
0FE000
7FE000
FFE000
FFE000
23E000
03E000
03E000
03E000
03E000
03E000
03E000
03E000
03E000
03E000
03E000
03E000
03E000
03E000
03E000
03E000
7FFF80
FFFF80
FFFF80
7FFF80
ENDCHAR
STARTCHAR two
ENCODING 50
SWIDTH 611 0
DWIDTH 22 0
BBX 20 25 1 0
BITMAP
3FFC00
7FFF00
7FFF80
3FFFC0
001FC0
0007E0
0007E0
0007E0
0007C0
000FC0
003F80
00FF80
01FF00
07FC00
0FF000
1FE000
3F8000
7E0000
7C0000
7C0000
FC0000
FFFFE0
FFFFF0
7FFFF0
7FFFE0
ENDCHAR
STARTCHAR three
ENCODING 51
SWIDTH 611 0
DWIDTH 22 0
BBX 20 25 1 0
BITMAP
3FFF80
7FFFC0
7FFFC0
3FFFC0
001F80
007E00
01FC00
07F000
0FF000
1FFE00
1FFF80
0FFFC0
001FE0
0007E0
0003F0
0001F0
0001F0
0001F0
0001F0
0003E0
000FE0
7FFFC0
FFFF80
FFFF00
7FFC00
ENDCHAR
STARTCHAR four
ENCODING 52
SWIDTH 611 0
DWIDTH 22 0
BBX 22 25 0 0
BITMAP
000F00
003F80
00FF80
01FF80
03FF80
07EF80
0FCF80
0F8F80
1F0F80
1E0F80
3E0F80
3C0F80
7C0F80
780F80
780F80
7FFFF8
FFFFFC
7FFFFC
7FFFF8
000F80
000F80
000F80
000F80
000780
000700
ENDCHAR
STARTCHAR five
ENCODING 53
SWIDTH 611 0
DWIDTH 22 0
BBX 20 25 1 0
BITMAP
1FFF80
3FFFC0
3FFFC0
3FFF80
3E0000
3C0000
3C0000
7FF000
7FFE00
7FFF80
3FFFC0
003FE0
0007E0
0003F0
0001F0
0001F0
0001F0
0001F0
0001F0
0003F0
000FE0
7FFFE0
FFFFC0
FFFF00
7FFC00
ENDCHAR
STARTCHAR six
ENCODING 54
SWIDTH 611 0
DWIDTH 22 0
BBX 20 25 1 0
BITMAP
01FFE0
07FFE0
0FFFE0
1FFFE0
3F8000
3E0000
7C0000
7CFC00
7FFF00
FFFFC0
FFFFC0
FF0FE0
FE03E0
FC03F0
FC01F0
FC01F0
FC01F0
7C01F0
7C03F0
7E03E0
3F0FE0
1FFFC0
1FFF80
07FF00
01FC00
ENDCHAR
STARTCHAR seven
ENCODING 55
SWIDTH 611 0
DWIDTH 22 0
BBX 18 25 2 0
BITMAP
7FFF80
FFFFC0
FFFFC0
7FFFC0
0007C0
000780
000F80
001F80
001F00
003F00
007E00
00FC00
00F800
01F800
03F000
03E000
07E000
07C000
07C000
07C000
07C000
07C000
07C000
07C000
038000
ENDCHAR
STARTCHAR eight
ENCODING 56
SWIDTH 611 0
DWIDTH 22 0
BBX 20 25 1 0
BITMAP
03FC00
0FFF00
1FFF80
3FFFC0
3F0FC0
7E07E0
7C03E0
7E07E0
3F0FC0
3FFFC0
1FFF80
1FFF80
3FFFC0
7F0FE0
FC03F0
F801F0
F801F0
F801F0
F803F0
FC03F0
7F9FE0
7FFFE0
3FFFC0
0FFF00
03FC00
ENDCHAR
STARTCHAR nine
ENCODING 57
SWIDTH 611 0
DWIDTH 22 0
BBX 20 25 1 0
BITMAP
03F800
0FFE00
1FFF00
3FFF80
7F0FC0
7C07E0
F803E0
F803E0
F803E0
F803F0
F803F0
F803F0
FC07F0
7F0FF0
3FFFF0
3FFFE0
0FFFE0
03F3E0
0003E0
0007C0
001FC0
7FFF80
7FFF00
7FFE00
7FF800
ENDCHAR
STARTCHAR colon
ENCODING 58
SWIDTH 305 0
DWIDTH 11 0
BBX 5 15 3 0
BITMAP
70
F8
F8
F8
70
00
00
00
00
00
70
F8
F8
F8
70
ENDCHAR
STARTCHAR semicolon
ENCODING 59
SWIDTH 305 0
DWIDTH 11 0
BBX 6 19 2 -4
BITMAP
78
78
7C
78
78
00
00
00
00
38
3C
7C
7C
F8
F8
F0
F0
E0
E0
ENDCHAR
STARTCHAR less
ENCODING 60
SWIDTH 600 0
DWIDTH 22 0
BBX 18 18 2 0
BITMAP
000040
0003C0
000FC0
007FC0
03FF00
0FFC00
7FE000
FF0000
FC0000
FC0000
FF0000
7FE000
0FFC00
03FF00
007FC0
000FC0
0003C0
000040
ENDCHAR
STARTCHAR equal
ENCODING 61
SWIDTH 600 0
DWIDTH 22 0
BBX 18 12 2 3
BITMAP
FFFFC0
FFFFC0
FFFFC0
FFFFC0
000000
000000
000000
000000
FFFFC0
FFFFC0
FFFFC0
FFFFC0
ENDCHAR
STARTCHAR greater
ENCODING 62
SWIDTH 600 0
DWIDTH 22 0
BBX 18 18 2 0
BITMAP
800000
E00000
FC0000
FF8000
7FE000
0FFC00
01FF00
007FC0
000FC0
000FC0
007FC0
01FF00
0FFC00
7FE000
FF8000
FC0000
E00000
800000
ENDCHAR
STARTCHAR question
ENCODING 63
SWIDTH 500 0
DWIDTH 18 0
BBX 16 25 1 0
BITMAP
FFF0
FFFC
FFFE
FFFE
003E
001F
003E
003E
007E
00FC
03F8
07F0
0FC0
0F80
0F80
0F00
0F00
0000
0000
0000
0F00
1F80
1F80
0F00
0F00
ENDCHAR
STARTCHAR at
ENCODING 64
SWIDTH 800 0
DWIDTH 29 0
BBX 25 25 2 0
BITMAP
007F8000
01FFE000
07FFF800
0F803C00
1E001E00
3C000F00
787E7700
70FF7380
F1FFF380
F3E3E380
E3C1E380
E380E380
E780E380
E781C380
E781C700
F783C700
F3C7CE00
73FFFC00
79FFF800
3CF9E000
1E000E00
0F803C00
07FFF800
01FFE000
007F8000
ENDCHAR
STARTCHAR A
ENCODING 65
SWIDTH 667 0
DWIDTH 24 0
BBX 22 25 1 0
BITMAP
007800
00FC00
01FC00
03FE00
03FF00
07CF00
07CF80
0F8780
0F07C0
1F03C0
1F03E0
1FE3E0
3FFDE0
3FFFF0
3FFFF0
7C1FF0
7C07F8
7801F8
F800F8
F800FC
F8007C
F8007C
F8007C
F0003C
700038
ENDCHAR
STARTCHAR B
ENCODING 66
SWIDTH 611 0
DWIDTH 22 0
BBX 19 25 2 0
BITMAP
7FFE00
FFFF00
FFFF80
FFFF80
F80FC0
F807C0
F80780
FC0780
FFEF80
FFFF00
FFFE00
F8FF00
F83F80
F80FC0
F807C0
F803C0
F803E0
F803E0
F803E0
F803E0
F80FC0
FFFFC0
FFFF80
FFFF00
7FFE00
ENDCHAR
STARTCHAR C
ENCODING 67
SWIDTH 611 0
DWIDTH 22 0
BBX 19 25 2 0
BITMAP
03FFC0
0FFFE0
3FFFE0
3FFFE0
7F8000
FC0000
F80000
F80000
F80000
F80000
F80000
F80000
F80000
F80000
FC0000
FC0000
7E0000
7F0000
3F8000
1FE000
0FFF00
07FFE0
03FFE0
00FFE0
001FC0
ENDCHAR
STARTCHAR D
ENCODING 68
SWIDTH 667 0
DWIDTH 24 0
BBX 21 25 2 0
BITMAP
7F8000
7FF000
FFFC00
FFFE00
F9FF00
F83F80
F81FC0
F807E0
F807E0
F803F0
F801F0
F801F0
F801F8
F801F8
F800F8
F800F8
F801F8
F801F0
F801F0
F803F0
F83FE0
FFFFE0
FFFFC0
FFFF00
7FFC00
ENDCHAR
STARTCHAR E
ENCODING 69
SWIDTH 556 0
DWIDTH 20 0
BBX 16 25 2 0
BITMAP
7FFF
7FFF
FFFF
FFFF
F800
F800
F800
FFFE
FFFF
FFFF
FFFF
F800
F800
F800
F800
F800
F800
F800
F800
F800
F800
FFFF
FFFF
7FFF
3FFF
ENDCHAR
STARTCHAR F
ENCODING 70
SWIDTH 500 0
DWIDTH 18 0
BBX 16 25 2 0
BITMAP
7FFE
7FFF
FFFF
FFFE
F800
F800
F800
FFFE
FFFE
FFFE
FFFE
F800
F800
F800
F800
F800
F800
F800
F800
F800
F800
F800
F800
7800
7000
ENDCHAR
STARTCHAR G
ENCODING 71
SWIDTH 722 0
DWIDTH 26 0
BBX 23 25 1 0
BITMAP
01FFF8
07FFFC
1FFFFC
1FFFF8
3FE000
7F0000
7E0000
7C0000
FC1FFC
F81FFE
F81FFE
F80FFE
FC001E
7C001E
7C001E
7E001E
3F001E
3F001E
1FC01E
0FF01E
07FF1E
03FFFE
00FFFE
003FFE
0007FC
ENDCHAR
STARTCHAR H
ENCODING 72
SWIDTH 611 0
DWIDTH 22 0
BBX 18 25 2 0
BITMAP
700380
F807C0
F807C0
F807C0
F807C0
F807C0
F807C0
F807C0
FFFFC0
FFFFC0
FFFFC0
FFFFC0
F807C0
F807C0
F807C0
F807C0
F807C0
F807C0
F807C0
F807C0
F807C0
F807C0
F807C0
F807C0
700380
ENDCHAR
STARTCHAR I
ENCODING 73
SWIDTH 278 0
DWIDTH 10 0
BBX 4 25 3 0
BITMAP
E0
F0
F0
F0
F0
F0
F0
F0
F0
F0
F0
F0
F0
F0
F0
F0
F0
F0
F0
F0
F0
F0
F0
F0
70
ENDCHAR
STARTCHAR J
ENCODING 74
SWIDTH 444 0
DWIDTH 16 0
BBX 14 25 0 0
BITMAP
0038
007C
007C
007C
007C
007C
007C
007C
007C
007C
007C
007C
007C
007C
007C
007C
007C
007C
007C
00FC
F9F8
FFF8
FFF0
7FE0
1F80
ENDCHAR
STARTCHAR K
ENCODING 75
SWIDTH 611 0
DWIDTH 22 0
BBX 19 25 2 0
BITMAP
700380
7807C0
F807C0
F807C0
F80F80
F81F80
F83F00
FFFE00
FFFC00
FFF800
FFFC00
F8FE00
F83F00
F81F80
F80F80
F807C0
F807C0
F803E0
F803E0
F803E0
F801E0
F801E0
F801E0
7801E0
7000E0
ENDCHAR
STARTCHAR L
ENCODING 76
SWIDTH 444 0
DWIDTH 16 0
BBX 13 25 3 0
BITMAP
E000
F000
F000
F000
F000
F000
F000
F000
F000
F000
F000
F000
F000
F000
F000
F000
F000
F000
F000
F000
F000
FFF8
FFF8
FFF8
7FF8
ENDCHAR
STARTCHAR M
ENCODING 77
SWIDTH 722 0
DWIDTH 26 0
BBX 22 25 2 0
BITMAP
1C00E0
3E01F0
3F03F0
7F03F8
7F07F8
7F87F8
7F87F8
7BCF78
7BFF78
7BFE78
F9FE7C
F8FC7C
F0FC7C
F0783C
F0003C
F0003C
F0003C
F0003C
F0003C
F0003C
F0003C
F0003C
F0003C
F0003C
700038
ENDCHAR
STARTCHAR N
ENCODING 78
SWIDTH 611 0
DWIDTH 22 0
BBX 18 25 2 0
BITMAP
780380
FC07C0
FE07C0
FF07C0
FF87C0
FFC7C0
FFF7C0
FBFFC0
F8FFC0
F87FC0
F81FC0
F807C0
F807C0
F807C0
F807C0
F807C0
F807C0
F807C0
F807C0
F807C0
F807C0
F807C0
F807C0
F807C0
700380
ENDCHAR
STARTCHAR O
ENCODING 79
SWIDTH 722 0
DWIDTH 26 0
BBX 24 25 1 0
BITMAP
00FE00
03FFC0
07FFE0
0FFFF0
1FC3F8
3F00FC
7E007C
7E007E
7C003E
7C003E
FC003F
F8001F
F8001F
F8001F
FC003F
7C003E
7C003E
7E007E
3E007C
3F00FC
1FC3F8
0FFFF0
07FFE0
03FFC0
007F00
ENDCHAR
STARTCHAR P
ENCODING 80
SWIDTH 556 0
DWIDTH 20 0
BBX 18 25 2 0
BITMAP
7FFE00
FFFF80
FFFF80
FFFFC0
F807C0
F807C0
F807C0
F80FC0
F83F80
F8FF00
FBFE00
FFFC00
FFF000
FFC000
FE0000
F80000
F80000
F80000
F80000
F80000
F80000
F80000
F80000
780000
700000
ENDCHAR
STARTCHAR Q
ENCODING 81
SWIDTH 722 0
DWIDTH 26 0
BBX 24 30 1 -5
BITMAP
00FE00
03FFC0
07FFE0
0FFFF0
1FC3F8
3F00FC
7E007C
7E007E
7C003E
7C003E
FC003F
F8001F
F8001F
F8001F
FC783F
7CFC3E
7CFE3E
7EFF7E
3E1F7C
3F0FFC
1FCFF8
0FFFF0
07FFE0
03FFC0
007FE0
0003F0
0001FE
0000FF
00007F
00003E
ENDCHAR
STARTCHAR R
ENCODING 82
SWIDTH 611 0
DWIDTH 22 0
BBX 19 25 2 0
BITMAP
7FFC00
FFFF00
FFFF80
FFFFC0
F80FC0
F807C0
F807C0
F80780
FF8F80
FFFF00
FFFE00
FFFE00
F87F00
F81F00
F80F80
F807C0
F807C0
F803C0
F803E0
F803E0
F801E0
F801E0
F801E0
F801E0
7000E0
ENDCHAR
STARTCHAR S
ENCODING 83
SWIDTH 611 0
DWIDTH 22 0
BBX 20 25 1 0
BITMAP
0FFF80
3FFF80
7FFF80
7FFF80
FC0000
F80000
F80000
7F0000
7FF000
3FFE00
1FFF80
07FFC0
003FE0
0007E0
0003E0
0001F0
0001F0
0001F0
0003E0
0003E0
001FE0
FFFFC0
FFFF80
FFFF00
7FFC00
ENDCHAR
STARTCHAR T
ENCODING 84
SWIDTH 500 0
DWIDTH 18 0
BBX 18 25 0 0
BITMAP
7FFF80
FFFFC0
FFFFC0
7FFF80
01E000
01E000
01E000
01E000
01E000
01E000
01E000
01E000
01E000
01E000
01E000
01E000
01E000
01E000
01E000
01E000
01E000
01E000
01E000
01E000
01E000
ENDCHAR
STARTCHAR U
ENCODING 85
SWIDTH 611 0
DWIDTH 22 0
BBX 18 25 2 0
BITMAP
380700
780780
780780
780780
780780
780780
780780
780780
F807C0
F807C0
F807C0
F007C0
F003C0
F003C0
F003C0
F003C0
F003C0
F003C0
F807C0
F80FC0
7E1F80
7FFF80
3FFF00
0FFC00
03F000
ENDCHAR
STARTCHAR V
ENCODING 86
SWIDTH 611 0
DWIDTH 22 0
BBX 20 25 1 0
BITMAP
7000E0
F801F0
F801F0
F801F0
F801F0
F801F0
F801E0
7C03E0
7C03E0
7C03E0
7C03C0
3C07C0
3E07C0
3E07C0
1E0780
1F0F80
1F0F80
0F9F00
0F9F00
07FE00
07FE00
03FC00
03FC00
01F800
00F000
ENDCHAR
STARTCHAR W
ENCODING 87
SWIDTH 833 0
DWIDTH 30 0
BBX 28 25 1 0
BITMAP
700E00E0
F00F01F0
F80F01F0
F80F01F0
F81F01F0
F81F81F0
F81F81E0
781F81E0
781F81E0
781F83E0
7C1F83E0
7C1F83E0
3C3FC3C0
3C3FC3C0
3C3FC3C0
3E79C7C0
1E79E780
1E79E780
1FF9FF80
1FF0FF00
0FF0FF00
0FE07F00
07E07E00
07C03E00
03801C00
ENDCHAR
STARTCHAR X
ENCODING 88
SWIDTH 611 0
DWIDTH 22 0
BBX 20 25 1 0
BITMAP
3801C0
7801E0
7C03E0
7C03E0
7E07E0
3F0FC0
1F9F80
0FFF00
07FE00
03FC00
07FC00
07FE00
0FFF00
1F1F80
3F0FC0
3E07C0
7C03E0
7C03E0
F801F0
F801F0
F801F0
F801F0
F001F0
F000F0
F000E0
ENDCHAR
STARTCHAR Y
ENCODING 89
SWIDTH 556 0
DWIDTH 20 0
BBX 18 25 1 0
BITMAP
E001C0
F003C0
F003C0
F807C0
F807C0
FC0FC0
7C0F80
3E1F00
3F3F00
1FFE00
0FFC00
07F800
03F000
01E000
01E000
01E000
01E000
01E000
01E000
01E000
01E000
01E000
01E000
01E000
01E000
ENDCHAR
STARTCHAR Z
ENCODING 90
SWIDTH 500 0
DWIDTH 18 0
BBX 16 25 1 0
BITMAP
3FFE
7FFF
7FFF
7FFF
001F
001F
003E
003E
007C
00FC
01F8
03F0
07E0
0FC0
1F80
3F00
7E00
7C00
F800
F800
F000
FFFF
FFFF
FFFF
7FFF
ENDCHAR
STARTCHAR bracketleft
ENCODING 91
SWIDTH 389 0
DWIDTH 14 0
BBX 10 32 3 -7
BITMAP
FF80
FFC0
FFC0
FF80
F000
F000
F000
F000
F000
F000
F000
F000
F000
F000
F000
F000
F000
F000
F000
F000
F000
F000
F000
F000
F000
F000
F000
F000
FF80
FFC0
FFC0
FF80
ENDCHAR
STARTCHAR backslash
ENCODING 92
SWIDTH 278 0
DWIDTH 10 0
BBX 12 25 -1 0
BITMAP
6000
F000
F800
F800
7800
7C00
7C00
3C00
3E00
1E00
1F00
1F00
0F00
0F80
0F80
0780
07C0
03C0
03E0
03E0
01E0
01F0
01F0
00F0
0060
ENDCHAR
STARTCHAR bracketright
ENCODING 93
SWIDTH 389 0
DWIDTH 14 0
BBX 10 32 1 -7
BITMAP
7FC0
FFC0
FFC0
7FC0
03C0
03C0
03C0
03C0
03C0
03C0
03C0
03C0
03C0
03C0
03C0
03C0
03C0
03C0
03C0
03C0
03C0
03C0
03C0
03C0
03C0
03C0
03C0
03C0
7FC0
FFC0
FFC0
7FC0
ENDCHAR
STARTCHAR asciicircum
ENCODING 94
SWIDTH 600 0
DWIDTH 22 0
BBX 16 14 3 11
BITMAP
03C0
07C0
07E0
0FE0
0EF0
1E70
1E78
3C38
3C3C
783C
781E
701E
F00F
E00F
ENDCHAR
STARTCHAR underscore
ENCODING 95
SWIDTH 500 0
DWIDTH 18 0
BBX 18 2 0 -5
BITMAP
FFFFC0
FFFFC0
ENDCHAR
STARTCHAR grave
ENCODING 96
SWIDTH 278 0
DWIDTH 10 0
BBX 10 5 0 20
BITMAP
F000
FE00
FF80
3FC0
03C0
ENDCHAR
STARTCHAR a
ENCODING 97
SWIDTH 556 0
DWIDTH 20 0
BBX 16 18 1 0
BITMAP
3FF8
7FFC
7FFE
3FFF
001F
000F
03FF
1FFF
3FFF
7F8F
FC0F
F80F
F00F
F81F
FEFF
7FFF
3FEF
0FCE
ENDCHAR
STARTCHAR b
ENCODING 98
SWIDTH 556 0
DWIDTH 20 0
BBX 17 25 2 0
BITMAP
700000
F00000
F80000
F80000
F80000
F80000
F80000
FF8000
FFE000
FFF800
FFFC00
F8FE00
F83F00
F81F00
F80F80
F80F80
F80F80
F80F80
F80F80
F80F80
F81F00
FFFF00
FFFE00
FFFC00
7FE000
ENDCHAR
STARTCHAR c
ENCODING 99
SWIDTH 500 0
DWIDTH 18 0
BBX 17 18 1 0
BITMAP
07FF00
1FFF00
3FFF00
7FFF00
7E0000
FC0000
F80000
F80000
F80000
F80000
7C0000
7C0000
7E0000
3FC000
1FFF00
0FFF80
03FF80
00FF00
ENDCHAR
STARTCHAR d
ENCODING 100
SWIDTH 556 0
DWIDTH 20 0
BBX 17 25 1 0
BITMAP
000700
000780
000F80
000F80
000F80
000F80
000F80
00FF80
07FF80
0FFF80
1FFF80
3F8F80
7E0F80
7C0F80
F80F80
F80F80
F80F80
F80F80
F80F80
F80F80
7C0F80
7FFF80
3FFF80
1FFF80
03FF00
ENDCHAR
STARTCHAR e
ENCODING 101
SWIDTH 556 0
DWIDTH 20 0
BBX 18 18 1 0
BITMAP
03F800
0FFE00
1FFF00
3FFF80
7E0F80
7C0780
7807C0
FFFFC0
FFFFC0
FFFF80
F80000
F80000
7C0000
7E0000
3FFF80
1FFF80
0FFFC0
01FF80
ENDCHAR
STARTCHAR f
ENCODING 102
SWIDTH 333 0
DWIDTH 12 0
BBX 13 25 0 0
BITMAP
03F0
0FF8
0FF8
1FF8
1F00
1E00
1E00
FFF0
FFF0
FFF0
7FF0
1E00
1E00
1E00
1E00
1E00
1E00
1E00
1E00
1E00
1E00
1E00
1E00
1E00
0E00
ENDCHAR
STARTCHAR g
ENCODING 103
SWIDTH 556 0
DWIDTH 20 0
BBX 19 25 1 -7
BITMAP
00FF80
07FFC0
0FFFC0
1FFF80
3F0F00
7C0F00
780F00
F80F00
F80F00
F80F00
F80F00
F80F00
780F00
7C0F00
7FFF00
3FFF80
1FFFC0
07FFE0
0003E0
0003E0
F007E0
FFFFC0
FFFF80
7FFF00
0FF800
ENDCHAR
STARTCHAR h
ENCODING 104
SWIDTH 556 0
DWIDTH 20 0
BBX 16 25 2 0
BITMAP
7000
F000
F800
F800
F800
F800
F800
F9F0
FFFC
FFFE
FFFE
FC3F
F81F
F81F
F81F
F81F
F81F
F81F
F81F
F81F
F81F
F81F
F81F
F00F
700E
ENDCHAR
STARTCHAR i
ENCODING 105
SWIDTH 278 0
DWIDTH 10 0
BBX 4 25 3 0
BITMAP
E0
F0
F0
F0
F0
00
00
60
F0
F0
F0
F0
F0
F0
F0
F0
F0
F0
F0
F0
F0
F0
F0
F0
60
ENDCHAR
STARTCHAR j
ENCODING 106
SWIDTH 222 0
DWIDTH 8 0
BBX 12 32 -6 -7
BITMAP
00E0
00F0
00F0
00F0
00F0
0000
0000
0060
00F0
00F0
00F0
00F0
00F0
00F0
00F0
00F0
00F0
00F0
00F0
00F0
00F0
00F0
00F0
00F0
00F0
00F0
01F0
03F0
7FE0
FFE0
7FC0
3F00
ENDCHAR
STARTCHAR k
ENCODING 107
SWIDTH 500 0
DWIDTH 18 0
BBX 16 25 2 0
BITMAP
7000
F000
F800
F800
F800
F800
F800
F81C
F83C
F87C
F8FC
FFF8
FFE0
FFC0
FFF0
F9F8
F8FC
F83C
F83E
F81E
F81E
F81F
F81F
F01E
700E
ENDCHAR
STARTCHAR l
ENCODING 108
SWIDTH 278 0
DWIDTH 10 0
BBX 4 25 3 0
BITMAP
60
F0
F0
F0
F0
F0
F0
F0
F0
F0
F0
F0
F0
F0
F0
F0
F0
F0
F0
F0
F0
F0
F0
F0
60
ENDCHAR
STARTCHAR m
ENCODING 109
SWIDTH 833 0
DWIDTH 30 0
BBX 26 18 2 0
BITMAP
63E07C00
FFF1FF00
FFFBFF80
FFFFFF80
FC3F8FC0
F83F07C0
F81E07C0
F81E07C0
F01E07C0
F01E07C0
F01E07C0
F01E07C0
F01E07C0
F01E07C0
F01E07C0
F01E07C0
F01E03C0
700C0380
ENDCHAR
STARTCHAR n
ENCODING 110
SWIDTH 556 0
DWIDTH 20 0
BBX 16 18 2 0
BITMAP
71F0
F7FC
FFFE
FFFE
FC3F
F81F
F81F
F81F
F81F
F81F
F81F
F81F
F81F
F81F
F81F
F81F
F00F
700E
ENDCHAR
STARTCHAR o
ENCODING 111
SWIDTH 556 0
DWIDTH 20 0
BBX 18 18 1 0
BITMAP
03F000
0FFC00
1FFE00
3FFF00
7E1F80
7C0F80
F807C0
F807C0
F807C0
F807C0
F807C0
F807C0
7C0F80
7E1F80
3FFF00
1FFE00
0FFC00
03F000
ENDCHAR
STARTCHAR p
ENCODING 112
SWIDTH 556 0
DWIDTH 20 0
BBX 17 25 2 -7
BITMAP
7F8000
FFF000
FFF800
FFFC00
F8FE00
F83F00
F81F00
F80F80
F80F80
F80F80
F80F80
F80F80
F80F80
F83F00
FFFF00
FFFE00
FFFC00
FFE000
F80000
F80000
F80000
F80000
F80000
F00000
700000
ENDCHAR
STARTCHAR q
ENCODING 113
SWIDTH 556 0
DWIDTH 20 0
BBX 17 25 1 -7
BITMAP
00FF00
07FF80
0FFF80
1FFF80
3F8F80
7E0F80
7C0F80
F80F80
F80F80
F80F80
F80F80
F80F80
F80F80
7E0F80
7FFF80
3FFF80
1FFF80
03FF80
000F80
000F80
000F80
000F80
000F80
000F80
000700
ENDCHAR
STARTCHAR r
ENCODING 114
SWIDTH 333 0
DWIDTH 12 0
BBX 10 18 2 0
BITMAP
73C0
77C0
F7C0
FFC0
FC00
F800
F800
F800
F800
F800
F800
F800
F800
F800
F800
F800
7800
7000
ENDCHAR
STARTCHAR s
ENCODING 115
SWIDTH 500 0
DWIDTH 18 0
BBX 16 18 1 0
BITMAP
1FFC
7FFE
7FFE
FFFC
F800
F800
7FC0
7FF8
3FFE
0FFE
003F
000F
000F
001F
7FFF
FFFE
FFFC
7FF0
ENDCHAR
STARTCHAR t
ENCODING 116
SWIDTH 389 0
DWIDTH 14 0
BBX 14 23 0 0
BITMAP
0F00
0F00
0F00
0F00
0F00
7FF8
FFF8
FFF8
7FF0
0F00
0F00
0F00
0F00
0F00
0F00
0F00
0F00
0F00
0F80
0FFC
0FFC
07FC
03FC
ENDCHAR
STARTCHAR u
ENCODING 117
SWIDTH 556 0
DWIDTH 20 0
BBX 16 18 2 0
BITMAP
700E
F00F
F81F
F81F
F81F
F81F
F81F
F81F
F81F
F81F
F81F
F81F
F81F
FC3F
7FFF
7FFF
3FFF
0F8E
ENDCHAR
STARTCHAR v
ENCODING 118
SWIDTH 500 0
DWIDTH 18 0
BBX 16 18 1 0
BITMAP
700E
F00F
F00F
F81F
F81F
781E
781E
781E
7C3E
3C3C
3C3C
3E78
1E78
1FF8
0FF0
07E0
07E0
03C0
ENDCHAR
STARTCHAR w
ENCODING 119
SWIDTH 722 0
DWIDTH 26 0
BBX 24 18 1 0
BITMAP
703C0E
F03C0F
F03C0F
F03C1F
F83C1F
787E1E
787E1E
787E1E
787E1E
787E3E
3CFF3C
3CEF3C
3DE7BC
1FE7F8
1FE7F8
0FC3F0
0FC3F0
0781E0
ENDCHAR
STARTCHAR x
ENCODING 120
SWIDTH 500 0
DWIDTH 18 0
BBX 16 18 1 0
BITMAP
700E
781E
781E
7C3E
7C3E
3E7C
1FF8
0FF0
0FF0
1FF8
3E7C
7C3E
FC3E
F81F
F81F
F00F
F00F
6007
ENDCHAR
STARTCHAR y
ENCODING 121
SWIDTH 500 0
DWIDTH 18 0
BBX 16 25 1 -7
BITMAP
7007
F00F
F00F
F80F
F80F
781F
781F
781E
7C1E
3C3C
3C3C
3E7C
1F78
0FF8
0FF0
07F0
07E0
03E0
07C0
07C0
0F80
1F00
3E00
3E00
1C00
ENDCHAR
STARTCHAR z
ENCODING 122
SWIDTH 444 0
DWIDTH 16 0
BBX 14 18 1 0
BITMAP
7FF8
FFFC
7FFC
7FFC
00FC
00F8
03F0
07F0
0FE0
1F80
3F00
7E00
FC00
F800
FFFC
FFFC
FFFC
FFFC
ENDCHAR
STARTCHAR braceleft
ENCODING 123
SWIDTH 389 0
DWIDTH 14 0
BBX 11 32 2 -7
BITMAP
07C0
0FE0
1FC0
1F00
1E00
1E00
1E00
1E00
1E00
1E00
1E00
1E00
1E00
3E00
FC00
E000
FC00
3E00
3E00
1E00
1E00
1E00
1E00
1E00
1E00
1E00
1E00
1E00
1F00
1FC0
0FE0
07C0
ENDCHAR
STARTCHAR bar
ENCODING 124
SWIDTH 222 0
DWIDTH 8 0
BBX 4 36 2 -9
BITMAP
F0
F0
F0
F0
F0
F0
F0
F0
F0
F0
F0
F0
F0
F0
F0
F0
F0
F0
F0
F0
F0
F0
F0
F0
F0
F0
F0
F0
F0
F0
F0
F0
F0
F0
F0
F0
ENDCHAR
STARTCHAR braceright
ENCODING 125
SWIDTH 389 0
DWIDTH 14 0
BBX 11 32 1 -7
BITMAP
7C00
FE00
7F00
1F00
0F00
0F00
0F00
0F00
0F00
0F00
0F00
0F00
0F00
0F80
07E0
00E0
07E0
0F80
0F00
0F00
0F00
0F00
0F00
0F00
0F00
0F00
0F00
0F00
1F00
7F00
FE00
7C00
ENDCHAR
STARTCHAR asciitilde
ENCODING 126
SWIDTH 600 0
DWIDTH 22 0
BBX 16 6 3 6
BITMAP
3C02
7F83
FFEF
FFFF
C1FE
807C
ENDCHAR
STARTCHAR uni00A0
ENCODING 160
SWIDTH 305 0
DWIDTH 11 0
BBX 1 1 0 0
BITMAP
00
ENDCHAR
STARTCHAR exclamdown
ENCODING 161
SWIDTH 333 0
DWIDTH 12 0
BBX 6 24 3 -7
BITMAP
78
FC
FC
78
78
00
00
38
78
78
78
78
78
78
78
78
78
78
78
F8
FC
FC
78
78
ENDCHAR
STARTCHAR cent
ENCODING 162
SWIDTH 611 0
DWIDTH 22 0
BBX 17 26 1 -1
BITMAP
007000
00F000
00F000
00F000
00F000
07FF00
1FFF80
3FFF80
7FFF00
7CF000
F8F000
F8F000
F8F000
F8F000
FCF000
7EF000
3FF000
3FFF00
1FFF80
07FF80
01FF80
00F000
00F000
00F000
00F000
007000
ENDCHAR
STARTCHAR sterling
ENCODING 163
SWIDTH 611 0
DWIDTH 22 0
BBX 22 25 0 0
BITMAP
000FE0
003FF8
007FFC
00FFFC
01FC38
01F000
01F000
01E000
01E000
1FFFE0
3FFFF0
3FFFF0
1FFFE0
01F000
01F000
01F000
01F000
01F000
01E000
03E000
0FF870
7FFFF0
FFFFF8
FFFFF0
783FE0
ENDCHAR
STARTCHAR currency
ENCODING 164
SWIDTH 611 0
DWIDTH 22 0
BBX 18 18 2 3
BITMAP
63F180
FFFFC0
FFFF80
7FFF00
7C0F80
780780
F807C0
F003C0
F003C0
F003C0
F003C0
F807C0
780780
7E1F80
7FFF80
FFFFC0
EFFDC0
41E080
ENDCHAR
STARTCHAR yen
ENCODING 165
SWIDTH 611 0
DWIDTH 22 0
BBX 18 25 2 0
BITMAP
E001C0
F003C0
F003C0
F807C0
F807C0
FC0FC0
7C0F80
7E1F00
7E3F80
FF7FC0
FFFFC0
7FFF80
03F000
3FFF00
7FFF80
7FFF80
7FFF80
01E000
01E000
01E000
01E000
01E000
01E000
01E000
01E000
ENDCHAR
STARTCHAR brokenbar
ENCODING 166
SWIDTH 222 0
DWIDTH 8 0
BBX 4 31 2 -7
BITMAP
F0
F0
F0
F0
F0
F0
F0
F0
F0
F0
F0
F0
F0
00
00
00
00
00
F0
F0
F0
F0
F0
F0
F0
F0
F0
F0
F0
F0
F0
ENDCHAR
STARTCHAR section
ENCODING 167
SWIDTH 500 0
DWIDTH 18 0
BBX 16 25 1 0
BITMAP
0FFC
1FFE
3FFC
3FF8
7C00
7C00
3F00
3FE0
7FF8
7FFC
F1FE
F83F
FC1F
7F9F
3FFF
1FFE
07FE
00FE
003E
001E
003E
3FFE
7FFC
7FF8
7FF0
ENDCHAR
STARTCHAR dieresis
ENCODING 168
SWIDTH 278 0
DWIDTH 10 0
BBX 12 4 -1 21
BITMAP
6060
F0F0
F0F0
F0F0
ENDCHAR
STARTCHAR copyright
ENCODING 169
SWIDTH 800 0
DWIDTH 29 0
BBX 26 25 1 0
BITMAP
003F8000
01FFF000
07FFF800
0FC07E00
1F001E00
1E1F0F00
3C7FC780
78FFE380
78F0F3C0
71E073C0
71C001C0
71C001C0
F1C001C0
F1C001C0
71E071C0
71E073C0
78F0E3C0
787FE380
3C3FC780
1E0E0F00
1F001E00
0FC07E00
03FFF800
01FFF000
003F8000
ENDCHAR
STARTCHAR ordfeminine
ENCODING 170
SWIDTH 334 0
DWIDTH 12 0
BBX 10 11 1 14
BITMAP
7F00
7FC0
03C0
01C0
3FC0
7FC0
F1C0
E1C0
E3C0
FFC0
7CC0
ENDCHAR
STARTCHAR guillemotleft
ENCODING 171
SWIDTH 500 0
DWIDTH 18 0
BBX 14 14 2 2
BITMAP
1E1C
1E3C
3E7C
3C78
7CF8
78F0
F9F0
F9F0
7CF8
7CF8
3E7C
1E3C
1E3C
0C1C
ENDCHAR
STARTCHAR logicalnot
ENCODING 172
SWIDTH 600 0
DWIDTH 22 0
BBX 18 12 2 3
BITMAP
FFFFC0
FFFFC0
FFFFC0
FFFFC0
0003C0
0003C0
0003C0
0003C0
0003C0
0003C0
0003C0
0003C0
ENDCHAR
STARTCHAR uni00AD
ENCODING 173
SWIDTH 333 0
DWIDTH 12 0
BBX 8 4 2 7
BITMAP
FF
FF
FF
FF
ENDCHAR
STARTCHAR registered
ENCODING 174
SWIDTH 800 0
DWIDTH 29 0
BBX 26 25 1 0
BITMAP
003F8000
01FFF000
07FFF800
0FC07C00
1F001E00
1E000F00
3CFFC780
78FFE380
78E0E3C0
70E0E3C0
70E0E1C0
70FFE1C0
F0FFC1C0
70E701C0
70E701C0
70E383C0
78E183C0
38E1C780
3CE0E780
1E000F00
1F001E00
0FC07C00
03FFF800
01FFF000
003F8000
ENDCHAR
STARTCHAR macron
ENCODING 175
SWIDTH 278 0
DWIDTH 10 0
BBX 10 3 0 21
BITMAP
FFC0
FFC0
FFC0
ENDCHAR
STARTCHAR degree
ENCODING 176
SWIDTH 400 0
DWIDTH 14 0
BBX 10 10 2 15
BITMAP
1E00
3F80
73C0
E0C0
C0C0
C0C0
E0C0
71C0
7F80
1F00
ENDCHAR
STARTCHAR plusminus
ENCODING 177
SWIDTH 600 0
DWIDTH 22 0
BBX 18 18 2 0
BITMAP
01E000
01E000
01E000
01E000
01E000
FFFFC0
FFFFC0
FFFFC0
FFFFC0
01E000
01E000
01E000
01E000
000000
FFFFC0
FFFFC0
FFFFC0
FFFFC0
ENDCHAR
STARTCHAR twosuperior
ENCODING 178
SWIDTH 366 0
DWIDTH 13 0
BBX 13 15 0 10
BITMAP
7FC0
7FE0
7FF0
00F0
00F0
00F0
03E0
0FC0
1F80
7E00
7800
F000
FFF0
FFF8
7FF8
ENDCHAR
STARTCHAR threesuperior
ENCODING 179
SWIDTH 366 0
DWIDTH 13 0
BBX 13 15 0 10
BITMAP
7FE0
FFE0
7FE0
0780
1F00
3F80
3FE0
07F0
0078
0078
0078
0078
FFF0
FFE0
FFC0
ENDCHAR
STARTCHAR acute
ENCODING 180
SWIDTH 278 0
DWIDTH 10 0
BBX 10 5 0 20
BITMAP
03C0
1FC0
7FC0
FF00
F000
ENDCHAR
STARTCHAR mu
ENCODING 181
SWIDTH 556 0
DWIDTH 20 0
BBX 16 25 2 -7
BITMAP
700E
F00F
F81F
F81F
F81F
F81F
F81F
F81F
F81F
F81F
F81F
F81F
F81F
FC3F
FFFF
FFFF
FFFF
FF8E
F800
F800
F800
F800
F800
F000
7000
ENDCHAR
STARTCHAR paragraph
ENCODING 182
SWIDTH 620 0
DWIDTH 22 0
BBX 19 25 1 0
BITMAP
07FFE0
3FFFE0
7FFFE0
7FFFE0
FFF0E0
FFF0E0
FFF0E0
FFF0E0
FFF0E0
7FF0E0
3FF0E0
1FF0E0
07F0E0
00F0E0
00F0E0
00F0E0
00F0E0
00F0E0
00F0E0
00F0E0
00F0E0
00F0E0
00F0E0
00F0E0
00F0E0
ENDCHAR
STARTCHAR periodcentered
ENCODING 183
SWIDTH 305 0
DWIDTH 11 0
BBX 5 5 3 7
BITMAP
70
F8
F8
F8
70
ENDCHAR
STARTCHAR cedilla
ENCODING 184
SWIDTH 278 0
DWIDTH 10 0
BBX 10 8 0 -7
BITMAP
0C00
0800
1800
1F00
1FC0
01C0
FF80
3F00
ENDCHAR
STARTCHAR onesuperior
ENCODING 185
SWIDTH 366 0
DWIDTH 13 0
BBX 11 15 1 10
BITMAP
0E00
FE00
FE00
6E00
0E00
0E00
0E00
0E00
0E00
0E00
0E00
0E00
FFE0
FFE0
FFE0
ENDCHAR
STARTCHAR ordmasculine
ENCODING 186
SWIDTH 334 0
DWIDTH 12 0
BBX 12 11 0 14
BITMAP
1F80
3FC0
7FE0
70E0
E070
E070
E070
70E0
7FE0
3FC0
1F80
ENDCHAR
STARTCHAR guillemotright
ENCODING 187
SWIDTH 500 0
DWIDTH 18 0
BBX 14 14 2 2
BITMAP
E1C0
F1E0
F9F0
78F0
7CF8
3C78
3E7C
3E7C
7CF8
78F8
F9F0
F1E0
F1E0
E0C0
ENDCHAR
STARTCHAR onequarter
ENCODING 188
SWIDTH 916 0
DWIDTH 33 0
BBX 31 25 1 0
BITMAP
0E000380
FE000780
FF000F80
6F000F80
0F001F00
0F003E00
0F003E00
0F007C00
0F00F800
0F00F800
0F01F0F0
0F03E3F0
FFE3C7F0
FFE7CF70
FFEF9E70
000F1C70
001F3C70
003E3870
003C7870
007C7FFE
00F87FFE
00F03FFE
01F00070
01E00070
01C00070
ENDCHAR
STARTCHAR onehalf
ENCODING 189
SWIDTH 916 0
DWIDTH 33 0
BBX 31 25 1 0
BITMAP
0E000700
FE000F00
FE000F00
7E001F00
1E003E00
1E003C00
1E007C00
1E00F800
1E00F000
1E01F000
1E03EFF0
1E07DFFC
FFC7CFFC
FFEF801E
FFFF001E
001F003C
003E007C
007C01F8
007807E0
00F80F80
01F01E00
01E01C00
03E01FFE
03C01FFE
01801FFE
ENDCHAR
STARTCHAR threequarters
ENCODING 190
SWIDTH 916 0
DWIDTH 33 0
BBX 32 25 1 0
BITMAP
7FE00180
7FF003C0
7FE007C0
03C00F80
1F000F00
3FC01F00
3FE03E00
03F03C00
00787C00
0078F800
0078F070
0079F1F8
7FFBE3F8
FFF3C7B8
FFC7CF38
000F8E38
000F1C38
001F1C38
003E3C38
007C3FFF
007C3FFF
00F81FFF
01F00038
01F00038
00E00038
ENDCHAR
STARTCHAR questiondown
ENCODING 191
SWIDTH 500 0
DWIDTH 18 0
BBX 16 24 1 -7
BITMAP
00F0
01F8
01F8
00F0
00F0
0000
0000
00F0
00F0
01F0
01F0
03F0
0FE0
1FC0
3F80
7E00
7C00
7800
F800
FC00
7FFF
7FFF
3FFF
0FFF
ENDCHAR
STARTCHAR Agrave
ENCODING 192
SWIDTH 667 0
DWIDTH 24 0
BBX 22 31 1 0
BITMAP
010000
03E000
03FC00
03FF00
003F00
000000
007800
00FC00
01FC00
03FE00
03FF00
07CF00
07CF80
0F8780
0F07C0
1F03C0
1F03E0
1FE3E0
3FFDE0
3FFFF0
3FFFF0
7C1FF0
7C07F8
7801F8
F800F8
F800FC
F8007C
F8007C
F8007C
F0003C
700038
ENDCHAR
STARTCHAR Aacute
ENCODING 193
SWIDTH 667 0
DWIDTH 24 0
BBX 22 31 1 0
BITMAP
000200
001F00
00FF00
03FF00
03F000
000000
007800
00FC00
01FC00
03FE00
03FF00
07CF00
07CF80
0F8780
0F07C0
1F03C0
1F03E0
1FE3E0
3FFDE0
3FFFF0
3FFFF0
7C1FF0
7C07F8
7801F8
F800F8
F800FC
F8007C
F8007C
F8007C
F0003C
700038
ENDCHAR
STARTCHAR Acircumflex
ENCODING 194
SWIDTH 667 0
DWIDTH 24 0
BBX 22 32 1 0
BITMAP
002000
007800
00FC00
01CE00
03CF00
078780
000000
007800
00FC00
01FC00
03FE00
03FF00
07CF00
07CF80
0F8780
0F07C0
1F03C0
1F03E0
1FE3E0
3FFDE0
3FFFF0
3FFFF0
7C1FF0
7C07F8
7801F8
F800F8
F800FC
F8007C
F8007C
F8007C
F0003C
700038
ENDCHAR
STARTCHAR Atilde
ENCODING 195
SWIDTH 667 0
DWIDTH 24 0
BBX 22 31 1 0
BITMAP
018080
03F180
07FF80
067F00
040C00
000000
007800
00FC00
01FC00
03FE00
03FF00
07CF00
07CF80
0F8780
0F07C0
1F03C0
1F03E0
1FE3E0
3FFDE0
3FFFF0
3FFFF0
7C1FF0
7C07F8
7801F8
F800F8
F800FC
F8007C
F8007C
F8007C
F0003C
700038
ENDCHAR
STARTCHAR Adieresis
ENCODING 196
SWIDTH 667 0
DWIDTH 24 0
BBX 22 30 1 0
BITMAP
078780
078780
078780
030300
000000
007800
00FC00
01FC00
03FE00
03FF00
07CF00
07CF80
0F8780
0F07C0
1F03C0
1F03E0
1FE3E0
3FFDE0
3FFFF0
3FFFF0
7C1FF0
7C07F8
7801F8
F800F8
F800FC
F8007C
F8007C
F8007C
F0003C
700038
ENDCHAR
STARTCHAR Aring
ENCODING 197
SWIDTH 667 0
DWIDTH 24 0
BBX 22 33 1 0
BITMAP
007800
00FC00
01CE00
018600
01CE00
00FC00
007800
000000
007800
00FC00
01FC00
03FE00
03FF00
07CF00
07CF80
0F8780
0F07C0
1F03C0
1F03E0
1FE3E0
3FFDE0
3FFFF0
3FFFF0
7C1FF0
7C07F8
7801F8
F800F8
F800FC
F8007C
F8007C
F8007C
F0003C
700038
ENDCHAR
STARTCHAR AE
ENCODING 198
SWIDTH 889 0
DWIDTH 32 0
BBX 31 25 0 0
BITMAP
0007FFFE
001FFFFE
003FFFFE
007FFFFE
00FDF000
01F9F000
01F1F000
03E1F000
07C1FFFC
0787FFFC
0F1FFFFC
1F7FFFFC
1FFFF000
1FF9F000
3FC1F000
3F81F000
7F01F000
7E01F000
7C01F000
F801F000
F801F000
F801FFFE
F001FFFE
F000FFFE
E000FFFE
ENDCHAR
STARTCHAR Ccedilla
ENCODING 199
SWIDTH 611 0
DWIDTH 22 0
BBX 19 32 2 -7
BITMAP
03FFC0
0FFFE0
3FFFE0
3FFFE0
7F8000
FC0000
F80000
F80000
F80000
F80000
F80000
F80000
F80000
F80000
FC0000
FC0000
7E0000
7F0000
3F8000
1FE000
0FFF00
07FFE0
03FFE0
00FFE0
003FC0
002000
007800
007E00
000F00
030700
03FE00
00FC00
ENDCHAR
STARTCHAR Egrave
ENCODING 200
SWIDTH 556 0
DWIDTH 20 0
BBX 16 31 2 0
BITMAP
0C00
1F80
1FF0
0FF8
00F8
0000
7FFF
7FFF
FFFF
FFFF
F800
F800
F800
FFFE
FFFF
FFFF
FFFF
F800
F800
F800
F800
F800
F800
F800
F800
F800
F800
FFFF
FFFF
7FFF
3FFF
ENDCHAR
STARTCHAR Eacute
ENCODING 201
SWIDTH 556 0
DWIDTH 20 0
BBX 16 31 2 0
BITMAP
0038
01F8
0FF8
1FF0
0F00
0000
7FFF
7FFF
FFFF
FFFF
F800
F800
F800
FFFE
FFFF
FFFF
FFFF
F800
F800
F800
F800
F800
F800
F800
F800
F800
F800
FFFF
FFFF
7FFF
3FFF
ENDCHAR
STARTCHAR Ecircumflex
ENCODING 202
SWIDTH 556 0
DWIDTH 20 0
BBX 16 32 2 0
BITMAP
0080
03E0
07E0
0F70
1E78
1C3C
0000
7FFF
7FFF
FFFF
FFFF
F800
F800
F800
FFFE
FFFF
FFFF
FFFF
F800
F800
F800
F800
F800
F800
F800
F800
F800
F800
FFFF
FFFF
7FFF
3FFF
ENDCHAR
STARTCHAR Edieresis
ENCODING 203
SWIDTH 556 0
DWIDTH 20 0
BBX 16 31 2 0
BITMAP
1C1C
3C3C
3C3C
3C3C
0000
0000
7FFF
7FFF
FFFF
FFFF
F800
F800
F800
FFFE
FFFF
FFFF
FFFF
F800
F800
F800
F800
F800
F800
F800
F800
F800
F800
FFFF
FFFF
7FFF
3FFF
ENDCHAR
STARTCHAR Igrave
ENCODING 204
SWIDTH 278 0
DWIDTH 10 0
BBX 10 31 0 0
BITMAP
E000
FC00
FF00
FFC0
07C0
0000
1C00
1E00
1E00
1E00
1E00
1E00
1E00
1E00
1E00
1E00
1E00
1E00
1E00
1E00
1E00
1E00
1E00
1E00
1E00
1E00
1E00
1E00
1E00
1E00
0E00
ENDCHAR
STARTCHAR Iacute
ENCODING 205
SWIDTH 278 0
DWIDTH 10 0
BBX 10 31 0 0
BITMAP
0180
0FC0
3FC0
FFC0
F800
0000
1C00
1E00
1E00
1E00
1E00
1E00
1E00
1E00
1E00
1E00
1E00
1E00
1E00
1E00
1E00
1E00
1E00
1E00
1E00
1E00
1E00
1E00
1E00
1E00
0E00
ENDCHAR
STARTCHAR Icircumflex
ENCODING 206
SWIDTH 278 0
DWIDTH 10 0
BBX 12 32 -1 0
BITMAP
0400
0F00
1F80
39C0
79E0
F0F0
0000
0E00
0F00
0F00
0F00
0F00
0F00
0F00
0F00
0F00
0F00
0F00
0F00
0F00
0F00
0F00
0F00
0F00
0F00
0F00
0F00
0F00
0F00
0F00
0F00
0700
ENDCHAR
STARTCHAR Idieresis
ENCODING 207
SWIDTH 278 0
DWIDTH 10 0
BBX 12 30 -1 0
BITMAP
F0F0
F0F0
F0F0
6060
0000
0E00
0F00
0F00
0F00
0F00
0F00
0F00
0F00
0F00
0F00
0F00
0F00
0F00
0F00
0F00
0F00
0F00
0F00
0F00
0F00
0F00
0F00
0F00
0F00
0700
ENDCHAR
STARTCHAR Eth
ENCODING 208
SWIDTH 667 0
DWIDTH 24 0
BBX 23 25 0 0
BITMAP
1FE000
1FFC00
3FFF00
3FFF80
3E7FC0
3E0FE0
3E07F0
3E03F8
3E01F8
3E00FC
FFF07C
FFF87C
FFF87E
7FF07E
3E003E
3E003E
3E007E
3E007C
3E007C
3E00FC
3E0FF8
3FFFF8
3FFFF0
3FFFC0
1FFF00
ENDCHAR
STARTCHAR Ntilde
ENCODING 209
SWIDTH 611 0
DWIDTH 22 0
BBX 18 31 2 0
BITMAP
078600
0FFE00
1FFC00
187800
100000
000000
780380
FC07C0
FE07C0
FF07C0
FF87C0
FFC7C0
FFF7C0
FBFFC0
F8FFC0
F87FC0
F81FC0
F807C0
F807C0
F807C0
F807C0
F807C0
F807C0
F807C0
F807C0
F807C0
F807C0
F807C0
F807C0
F807C0
700380
ENDCHAR
STARTCHAR Ograve
ENCODING 210
SWIDTH 722 0
DWIDTH 26 0
BBX 24 31 1 0
BITMAP
008000
01F000
01FE00
01FF80
001F80
000000
00FE00
03FFC0
07FFE0
0FFFF0
1FC3F8
3F00FC
7E007C
7E007E
7C003E
7C003E
FC003F
F8001F
F8001F
F8001F
FC003F
7C003E
7C003E
7E007E
3E007C
3F00FC
1FC3F8
0FFFF0
07FFE0
03FFC0
007F00
ENDCHAR
STARTCHAR Oacute
ENCODING 211
SWIDTH 722 0
DWIDTH 26 0
BBX 24 31 1 0
BITMAP
000100
000F80
007F80
01FF80
01F800
000000
00FE00
03FFC0
07FFE0
0FFFF0
1FC3F8
3F00FC
7E007C
7E007E
7C003E
7C003E
FC003F
F8001F
F8001F
F8001F
FC003F
7C003E
7C003E
7E007E
3E007C
3F00FC
1FC3F8
0FFFF0
07FFE0
03FFC0
007F00
ENDCHAR
STARTCHAR Ocircumflex
ENCODING 212
SWIDTH 722 0
DWIDTH 26 0
BBX 24 32 1 0
BITMAP
001000
003C00
007E00
00EF00
01E780
03C3C0
000000
00FE00
03FFC0
07FFE0
0FFFF0
1FC3F8
3F00FC
7E007C
7E007E
7C003E
7C003E
FC003F
F8001F
F8001F
F8001F
FC003F
7C003E
7C003E
7E007E
3E007C
3F00FC
1FC3F8
0FFFF0
07FFE0
03FFC0
007F00
ENDCHAR
STARTCHAR Otilde
ENCODING 213
SWIDTH 722 0
DWIDTH 26 0
BBX 24 31 1 0
BITMAP
008040
01F8C0
03FFC0
033F80
020700
000000
00FE00
03FFC0
07FFE0
0FFFF0
1FC3F8
3F00FC
7E007C
7E007E
7C003E
7C003E
FC003F
F8001F
F8001F
F8001F
FC003F
7C003E
7C003E
7E007E
3E007C
3F00FC
1FC3F8
0FFFF0
07FFE0
03FFC0
007F00
ENDCHAR
STARTCHAR Odieresis
ENCODING 214
SWIDTH 722 0
DWIDTH 26 0
BBX 24 30 1 0
BITMAP
03C3C0
03C3C0
03C3C0
018180
000000
00FE00
03FFC0
07FFE0
0FFFF0
1FC3F8
3F00FC
7E007C
7E007E
7C003E
7C003E
FC003F
F8001F
F8001F
F8001F
FC003F
7C003E
7C003E
7E007E
3E007C
3F00FC
1FC3F8
0FFFF0
07FFE0
03FFC0
007F00
ENDCHAR
STARTCHAR multiply
ENCODING 215
SWIDTH 600 0
DWIDTH 22 0
BBX 18 18 2 0
BITMAP
200100
700380
F807C0
7C0F80
3E1F00
1F3E00
0FFC00
07F800
03F000
03F000
07F800
0FFC00
1F3E00
3E1F00
7C0F80
F807C0
700380
200100
ENDCHAR
STARTCHAR Oslash
ENCODING 216
SWIDTH 722 0
DWIDTH 26 0
BBX 24 31 1 -3
BITMAP
000070
0000F0
0000F0
00FFF0
03FFE0
07FFE0
0FFFF0
1FC7F8
3F07FC
7E0FFC
7E0F7E
7C1F3E
7C1E3E
FC3E3F
F83C1F
F87C1F
F8781F
FCF83F
7CF83E
7DF03E
7FF07E
3FE07C
3FE0FC
1FC3F8
0FFFF0
07FFE0
0FFFC0
0F7F00
1F0000
1E0000
1E0000
ENDCHAR
STARTCHAR Ugrave
ENCODING 217
SWIDTH 611 0
DWIDTH 22 0
BBX 18 31 2 0
BITMAP
0E0000
0FC000
0FF000
07FC00
007C00
000000
380700
780780
780780
780780
780780
780780
780780
780780
F807C0
F807C0
F807C0
F007C0
F003C0
F003C0
F003C0
F003C0
F003C0
F003C0
F807C0
F80FC0
7E1F80
7FFF80
3FFF00
0FFC00
03F000
ENDCHAR
STARTCHAR Uacute
ENCODING 218
SWIDTH 611 0
DWIDTH 22 0
BBX 18 31 2 0
BITMAP
001800
00FC00
03FC00
0FFC00
0F8000
000000
380700
780780
780780
780780
780780
780780
780780
780780
F807C0
F807C0
F807C0
F007C0
F003C0
F003C0
F003C0
F003C0
F003C0
F003C0
F807C0
F80FC0
7E1F80
7FFF80
3FFF00
0FFC00
03F000
ENDCHAR
STARTCHAR Ucircumflex
ENCODING 219
SWIDTH 611 0
DWIDTH 22 0
BBX 18 32 2 0
BITMAP
008000
01E000
03F000
073800
0F3C00
1E1E00
000000
380700
780780
780780
780780
780780
780780
780780
780780
F807C0
F807C0
F807C0
F007C0
F003C0
F003C0
F003C0
F003C0
F003C0
F003C0
F807C0
F80FC0
7E1F80
7FFF80
3FFF00
0FFC00
03F000
ENDCHAR
STARTCHAR Udieresis
ENCODING 220
SWIDTH 611 0
DWIDTH 22 0
BBX 18 30 2 0
BITMAP
1E1E00
1E1E00
1E1E00
0C0C00
000000
380700
780780
780780
780780
780780
780780
780780
780780
F807C0
F807C0
F807C0
F007C0
F003C0
F003C0
F003C0
F003C0
F003C0
F003C0
F807C0
F80FC0
7E1F80
7FFF80
3FFF00
0FFC00
03F000
ENDCHAR
STARTCHAR Yacute
ENCODING 221
SWIDTH 556 0
DWIDTH 20 0
BBX 18 31 1 0
BITMAP
000C00
007C00
03FC00
07FC00
07C000
000000
E001C0
F003C0
F003C0
F807C0
F807C0
FC0FC0
7C0F80
3E1F00
3F3F00
1FFE00
0FFC00
07F800
03F000
01E000
01E000
01E000
01E000
01E000
01E000
01E000
01E000
01E000
01E000
01E000
01E000
ENDCHAR
STARTCHAR Thorn
ENCODING 222
SWIDTH 556 0
DWIDTH 20 0
BBX 18 25 2 0
BITMAP
700000
780000
F80000
F80000
FFFE00
FFFF80
FFFF80
FFFFC0
F807C0
F807C0
F807C0
F80FC0
F81F80
F87F80
FBFF00
FFFC00
FFF000
FFC000
FE0000
F80000
F80000
F80000
F80000
780000
700000
ENDCHAR
STARTCHAR germandbls
ENCODING 223
SWIDTH 556 0
DWIDTH 20 0
BBX 19 25 0 0
BITMAP
07F800
0FFE00
1FFE00
1FFF00
3E1F00
3C0F00
3C1F00
FC3E00
FC7C00
FCF800
FDF000
3DE000
3DFC00
3CFF00
3C7FC0
3C0FC0
3C03E0
3C01E0
3C01E0
3C03E0
3C07E0
3FFFC0
3FFFC0
3FFF80
1FFE00
ENDCHAR
STARTCHAR agrave
ENCODING 224
SWIDTH 556 0
DWIDTH 20 0
BBX 16 25 1 0
BITMAP
0E00
0FC0
0FF8
07FC
0078
0000
0000
3FF8
7FFC
7FFE
3FFF
001F
000F
03FF
1FFF
3FFF
7F8F
FC0F
F80F
F00F
F81F
FEFF
7FFF
3FEF
0FCE
ENDCHAR
STARTCHAR aacute
ENCODING 225
SWIDTH 556 0
DWIDTH 20 0
BBX 16 25 1 0
BITMAP
0038
01FC
07FC
0FF8
0F00
0000
0000
3FF8
7FFC
7FFE
3FFF
001F
000F
03FF
1FFF
3FFF
7F8F
FC0F
F80F
F00F
F81F
FEFF
7FFF
3FEF
0FCE
ENDCHAR
STARTCHAR acircumflex
ENCODING 226
SWIDTH 556 0
DWIDTH 20 0
BBX 16 25 1 0
BITMAP
01E0
03E0
07F0
0F38
0E3C
0000
0000
3FF8
7FFC
7FFE
3FFF
001F
000F
03FF
1FFF
3FFF
7F8F
FC0F
F80F
F00F
F81F
FEFF
7FFF
3FEF
0FCE
ENDCHAR
STARTCHAR atilde
ENCODING 227
SWIDTH 556 0
DWIDTH 20 0
BBX 16 25 1 0
BITMAP
0706
0FFE
1FFC
18F8
1000
0000
0000
3FF8
7FFC
7FFE
3FFF
001F
000F
03FF
1FFF
3FFF
7F8F
FC0F
F80F
F00F
F81F
FEFF
7FFF
3FEF
0FCE
ENDCHAR
STARTCHAR adieresis
ENCODING 228
SWIDTH 556 0
DWIDTH 20 0
BBX 16 25 1 0
BITMAP
1C1C
1E1E
1E1E
1E1E
0000
0000
0000
3FF8
7FFC
7FFE
3FFF
001F
000F
03FF
1FFF
3FFF
7F8F
FC0F
F80F
F00F
F81F
FEFF
7FFF
3FEF
0FCE
ENDCHAR
STARTCHAR aring
ENCODING 229
SWIDTH 556 0
DWIDTH 20 0
BBX 16 28 1 0
BITMAP
01E0
03F0
0730
0618
0618
0730
03F0
01E0
0000
0000
3FF8
7FFC
7FFE
3FFF
001F
000F
03FF
1FFF
3FFF
7F8F
FC0F
F80F
F00F
F81F
FEFF
7FFF
3FEF
0FCE
ENDCHAR
STARTCHAR ae
ENCODING 230
SWIDTH 778 0
DWIDTH 28 0
BBX 28 18 0 0
BITMAP
3FF07E00
3FFDFF00
3FFFFFC0
3FFFEFC0
001F81E0
001F01E0
03FFFFE0
1FFFFFE0
3FFFFFE0
7F9F0000
7C1F0000
F81F0000
F81F8000
F81FC000
7FFFFFE0
7FFFFFF0
3FFDFFF0
0FF07FE0
ENDCHAR
STARTCHAR ccedilla
ENCODING 231
SWIDTH 500 0
DWIDTH 18 0
BBX 17 25 1 -7
BITMAP
07FF00
1FFF00
3FFF00
7FFF00
7E0000
FC0000
F80000
F80000
F80000
F80000
7C0000
7C0000
7E0000
3FC000
1FFF00
0FFF80
03FF80
00FF00
00C000
00E000
00FC00
001C00
041C00
07FC00
03F000
ENDCHAR
STARTCHAR egrave
ENCODING 232
SWIDTH 556 0
DWIDTH 20 0
BBX 18 25 1 0
BITMAP
060000
0FC000
0FF800
07FC00
007C00
000000
000000
03F800
0FFE00
1FFF00
3FFF80
7E0F80
7C0780
7807C0
FFFFC0
FFFFC0
FFFF80
F80000
F80000
7C0000
7E0000
3FFF80
1FFF80
0FFFC0
01FF80
ENDCHAR
STARTCHAR eacute
ENCODING 233
SWIDTH 556 0
DWIDTH 20 0
BBX 18 25 1 0
BITMAP
001C00
007C00
03FC00
0FFC00
0FC000
000000
000000
03F800
0FFE00
1FFF00
3FFF80
7E0F80
7C0780
7807C0
FFFFC0
FFFFC0
FFFF80
F80000
F80000
7C0000
7E0000
3FFF80
1FFF80
0FFFC0
01FF80
ENDCHAR
STARTCHAR ecircumflex
ENCODING 234
SWIDTH 556 0
DWIDTH 20 0
BBX 18 25 1 0
BITMAP
01E000
01F000
03F800
073C00
0F1C00
000000
000000
03F800
0FFE00
1FFF00
3FFF80
7E0F80
7C0780
7807C0
FFFFC0
FFFFC0
FFFF80
F80000
F80000
7C0000
7E0000
3FFF80
1FFF80
0FFFC0
01FF80
ENDCHAR
STARTCHAR edieresis
ENCODING 235
SWIDTH 556 0
DWIDTH 20 0
BBX 18 24 1 0
BITMAP
1E1E00
1E1E00
1E1E00
0E0E00
000000
000000
03F800
0FFE00
1FFF00
3FFF80
7E0F80
7C0780
7807C0
FFFFC0
FFFFC0
FFFF80
F80000
F80000
7C0000
7E0000
3FFF80
1FFF80
0FFFC0
01FF80
ENDCHAR
STARTCHAR igrave
ENCODING 236
SWIDTH 278 0
DWIDTH 10 0
BBX 10 25 0 0
BITMAP
E000
FC00
FF00
FFC0
07C0
0000
0000
0C00
1E00
1E00
1E00
1E00
1E00
1E00
1E00
1E00
1E00
1E00
1E00
1E00
1E00
1E00
1E00
1E00
0C00
ENDCHAR
STARTCHAR iacute
ENCODING 237
SWIDTH 278 0
DWIDTH 10 0
BBX 10 25 0 0
BITMAP
0180
0FC0
7FC0
FFC0
F800
0000
0000
0C00
1E00
1E00
1E00
1E00
1E00
1E00
1E00
1E00
1E00
1E00
1E00
1E00
1E00
1E00
1E00
1E00
0C00
ENDCHAR
STARTCHAR icircumflex
ENCODING 238
SWIDTH 278 0
DWIDTH 10 0
BBX 10 25 0 0
BITMAP
1E00
3F00
7F80
7380
E1C0
0000
0000
0C00
1E00
1E00
1E00
1E00
1E00
1E00
1E00
1E00
1E00
1E00
1E00
1E00
1E00
1E00
1E00
1E00
0C00
ENDCHAR
STARTCHAR idieresis
ENCODING 239
SWIDTH 278 0
DWIDTH 10 0
BBX 12 24 -1 0
BITMAP
F0F0
F0F0
F0F0
6060
0000
0000
0600
0F00
0F00
0F00
0F00
0F00
0F00
0F00
0F00
0F00
0F00
0F00
0F00
0F00
0F00
0F00
0F00
0600
ENDCHAR
STARTCHAR eth
ENCODING 240
SWIDTH 556 0
DWIDTH 20 0
BBX 17 26 1 0
BITMAP
000C00
1E1E00
3FFC00
1FF800
07F800
07FC00
0FFE00
0E3E00
001F00
03CF00
0FFF80
1FFF80
3FFF80
7E1F80
7C0F80
780780
780780
F80780
780780
780780
7C0F80
7E1F00
3FFF00
1FFE00
0FFC00
03F000
ENDCHAR
STARTCHAR ntilde
ENCODING 241
SWIDTH 556 0
DWIDTH 20 0
BBX 16 25 2 0
BITMAP
0404
1F8C
1FFC
33F8
2060
0000
0000
71F0
F7FC
FFFE
FFFE
FC3F
F81F
F81F
F81F
F81F
F81F
F81F
F81F
F81F
F81F
F81F
F81F
F00F
700E
ENDCHAR
STARTCHAR ograve
ENCODING 242
SWIDTH 556 0
DWIDTH 20 0
BBX 18 25 1 0
BITMAP
0E0000
0FC000
0FF000
0FFC00
007C00
000000
000000
03F000
0FFC00
1FFE00
3FFF00
7E1F80
7C0F80
F807C0
F807C0
F807C0
F807C0
F807C0
F807C0
7C0F80
7E1F80
3FFF00
1FFE00
0FFC00
03F000
ENDCHAR
STARTCHAR oacute
ENCODING 243
SWIDTH 556 0
DWIDTH 20 0
BBX 18 25 1 0
BITMAP
001800
00FC00
07FC00
0FFC00
0F8000
000000
000000
03F000
0FFC00
1FFE00
3FFF00
7E1F80
7C0F80
F807C0
F807C0
F807C0
F807C0
F807C0
F807C0
7C0F80
7E1F80
3FFF00
1FFE00
0FFC00
03F000
ENDCHAR
STARTCHAR ocircumflex
ENCODING 244
SWIDTH 556 0
DWIDTH 20 0
BBX 18 25 1 0
BITMAP
01E000
03F000
07F800
073800
0E1C00
000000
000000
03F000
0FFC00
1FFE00
3FFF00
7E1F80
7C0F80
F807C0
F807C0
F807C0
F807C0
F807C0
F807C0
7C0F80
7E1F80
3FFF00
1FFE00
0FFC00
03F000
ENDCHAR
STARTCHAR otilde
ENCODING 245
SWIDTH 556 0
DWIDTH 20 0
BBX 18 25 1 0
BITMAP
060200
0FC600
1FFE00
19FC00
103800
000000
000000
03F000
0FFC00
1FFE00
3FFF00
7E1F80
7C0F80
F807C0
F807C0
F807C0
F807C0
F807C0
F807C0
7C0F80
7E1F80
3FFF00
1FFE00
0FFC00
03F000
ENDCHAR
STARTCHAR odieresis
ENCODING 246
SWIDTH 556 0
DWIDTH 20 0
BBX 18 24 1 0
BITMAP
1E1E00
1E1E00
1E1E00
0C0C00
000000
000000
03F000
0FFC00
1FFE00
3FFF00
7E1F80
7C0F80
F807C0
F807C0
F807C0
F807C0
F807C0
F807C0
7C0F80
7E1F80
3FFF00
1FFE00
0FFC00
03F000
ENDCHAR
STARTCHAR divide
ENCODING 247
SWIDTH 600 0
DWIDTH 22 0
BBX 18 21 2 -1
BITMAP
01C000
03E000
03F000
03F000
03E000
01E000
000000
000000
000000
FFFFC0
FFFFC0
FFFFC0
FFFFC0
000000
000000
01C000
03E000
03F000
03F000
03E000
01E000
ENDCHAR
STARTCHAR oslash
ENCODING 248
SWIDTH 556 0
DWIDTH 20 0
BBX 18 24 1 -3
BITMAP
000200
000700
000700
03FF00
0FFE00
1FFE00
3FFF00
7E3F80
7C3F80
F877C0
F8E7C0
F8E7C0
F9C7C0
F9C7C0
FB87C0
7F0F80
7F1F80
3FFF00
1FFE00
1FFC00
3FF000
380000
780000
300000
ENDCHAR
STARTCHAR ugrave
ENCODING 249
SWIDTH 556 0
DWIDTH 20 0
BBX 16 25 2 0
BITMAP
1C00
1F80
1FE0
1FF8
00F8
0000
0000
700E
F00F
F81F
F81F
F81F
F81F
F81F
F81F
F81F
F81F
F81F
F81F
F81F
FC3F
7FFF
7FFF
3FFF
0F8E
ENDCHAR
STARTCHAR uacute
ENCODING 250
SWIDTH 556 0
DWIDTH 20 0
BBX 16 25 2 0
BITMAP
0030
01F8
0FF8
1FF8
1F00
0000
0000
700E
F00F
F81F
F81F
F81F
F81F
F81F
F81F
F81F
F81F
F81F
F81F
F81F
FC3F
7FFF
7FFF
3FFF
0F8E
ENDCHAR
STARTCHAR ucircumflex
ENCODING 251
SWIDTH 556 0
DWIDTH 20 0
BBX 16 25 2 0
BITMAP
03C0
07E0
0FF0
0E70
1C38
0000
0000
700E
F00F
F81F
F81F
F81F
F81F
F81F
F81F
F81F
F81F
F81F
F81F
F81F
FC3F
7FFF
7FFF
3FFF
0F8E
ENDCHAR
STARTCHAR udieresis
ENCODING 252
SWIDTH 556 0
DWIDTH 20 0
BBX 16 24 2 0
BITMAP
3C3C
3C3C
3C3C
1818
0000
0000
700E
F00F
F81F
F81F
F81F
F81F
F81F
F81F
F81F
F81F
F81F
F81F
F81F
FC3F
7FFF
7FFF
3FFF
0F8E
ENDCHAR
STARTCHAR yacute
ENCODING 253
SWIDTH 500 0
DWIDTH 18 0
BBX 16 32 1 -7
BITMAP
0030
01F8
0FF8
1FF8
1F00
0000
0000
7007
F00F
F00F
F80F
F80F
781F
781F
781E
7C1E
3C3C
3C3C
3E7C
1F78
0FF8
0FF0
07F0
07E0
03E0
07C0
07C0
0F80
1F00
3E00
3E00
1C00
ENDCHAR
STARTCHAR thorn
ENCODING 254
SWIDTH 556 0
DWIDTH 20 0
BBX 17 32 2 -7
BITMAP
700000
F00000
F80000
F80000
F80000
F80000
F80000
FF0000
FFE000
FFF800
FFFC00
F8FE00
F83F00
F81F00
F80F80
F80F80
F80F80
F80F80
F80F80
F80F80
F83F00
FFFF00
FFFE00
FFFC00
FFE000
F80000
F80000
F80000
F80000
F80000
F00000
700000
ENDCHAR
STARTCHAR ydieresis
ENCODING 255
SWIDTH 500 0
DWIDTH 18 0
BBX 16 31 1 -7
BITMAP
3C3C
3C3C
3C3C
1818
0000
0000
7007
F00F
F00F
F80F
F80F
781F
781F
781E
7C1E
3C3C
3C3C
3E7C
1F78
0FF8
0FF0
07F0
07E0
03E0
07C0
07C0
0F80
1F00
3E00
3E00
1C00
ENDCHAR
STARTCHAR .notdef
ENCODING -1
SWIDTH 500 0
DWIDTH 18 0
BBX 18 25 0 0
BITMAP
FFFFC0
FFFFC0
E001C0
F003C0
D806C0
D806C0
CC0CC0
C618C0
C618C0
C330C0
C1E0C0
C1E0C0
C0C0C0
C1E0C0
C1E0C0
C330C0
C618C0
C618C0
CC0CC0
D806C0
D806C0
F003C0
E001C0
FFFFC0
FFFFC0
ENDCHAR
STARTCHAR quoteright
ENCODING -1
SWIDTH 222 0
DWIDTH 8 0
BBX 6 10 1 15
BITMAP
1C
3C
3C
7C
7C
78
F8
F0
F0
E0
ENDCHAR
STARTCHAR quoteleft
ENCODING -1
SWIDTH 222 0
DWIDTH 8 0
BBX 6 10 1 15
BITMAP
E0
F0
F0
F8
F8
78
7C
3C
3C
1C
ENDCHAR
STARTCHAR fraction
ENCODING -1
SWIDTH 167 0
DWIDTH 6 0
BBX 18 25 -6 0
BITMAP
0001C0
0003C0
0007C0
0007C0
000F80
001F00
001F00
003E00
007C00
007800
00F800
01F000
01E000
03E000
07C000
078000
0F8000
1F0000
3E0000
3E0000
7C0000
F80000
F80000
F00000
E00000
ENDCHAR
STARTCHAR florin
ENCODING -1
SWIDTH 611 0
DWIDTH 22 0
BBX 22 32 0 -7
BITMAP
0001F8
0007FC
000FFC
001FFC
001FE0
003F00
003E00
003E00
003E00
03FF80
07FFE0
0FFFE0
07FFE0
07FFC0
007C00
00F800
00F800
00F800
00F800
00F800
00F800
01F000
01F000
01F000
01F000
01F000
03E000
1FE000
FFC000
FFC000
FF8000
7E0000
ENDCHAR
STARTCHAR quotedblleft
ENCODING -1
SWIDTH 389 0
DWIDTH 14 0
BBX 14 10 0 15
BITMAP
70C0
F9E0
F9F0
79F0
7CF0
3CF8
3C78
3E78
1E3C
0C38
ENDCHAR
STARTCHAR guilsinglleft
ENCODING -1
SWIDTH 333 0
DWIDTH 12 0
BBX 7 14 3 2
BITMAP
1C
1E
3E
7C
7C
F8
F8
F8
78
7C
3C
3E
1E
0C
ENDCHAR
STARTCHAR guilsinglright
ENCODING -1
SWIDTH 333 0
DWIDTH 12 0
BBX 7 14 2 2
BITMAP
F0
F0
F8
78
7C
3E
3E
3E
3C
7C
78
F8
F0
60
ENDCHAR
STARTCHAR fi
ENCODING -1
SWIDTH 611 0
DWIDTH 22 0
BBX 19 25 0 0
BITMAP
03FFC0
07FFE0
0FFFE0
1FFFE0
1F01E0
1F01E0
1F0000
FFFFC0
FFFFE0
FFFFE0
7FFFE0
1E01E0
1E01E0
1E01E0
1E01E0
1E01E0
1E01E0
1E01E0
1E01E0
1E01E0
1E01E0
1E01E0
1E01E0
1E01E0
0E01C0
ENDCHAR
STARTCHAR fl
ENCODING -1
SWIDTH 611 0
DWIDTH 22 0
BBX 19 25 0 0
BITMAP
03FF80
0FFFE0
0FFFE0
1FFFE0
1F01E0
1F01E0
1F01E0
FFF1E0
FFF9E0
FFF9E0
7FF1E0
1F01E0
1F01E0
1F01E0
1F01E0
1F01E0
1F01E0
1F01E0
1F01E0
1F01E0
1F01E0
1F01E0
1F01E0
1E01E0
0E01C0
ENDCHAR
STARTCHAR endash
ENCODING -1
SWIDTH 500 0
DWIDTH 18 0
BBX 18 3 0 8
BITMAP
FFFFC0
FFFFC0
FFFFC0
ENDCHAR
STARTCHAR dagger
ENCODING -1
SWIDTH 444 0
DWIDTH 16 0
BBX 12 25 2 0
BITMAP
0600
0F00
0F00
0F00
0F00
7FE0
FFF0
FFF0
FFE0
0F00
0F00
0F00
0F00
0F00
0F00
0F00
0F00
0F00
0F00
0F00
0F00
0F00
0F00
0F00
0E00
ENDCHAR
STARTCHAR daggerdbl
ENCODING -1
SWIDTH 444 0
DWIDTH 16 0
BBX 12 25 2 0
BITMAP
0600
0F00
0F00
0F00
0F00
7FE0
FFF0
FFF0
FFE0
0F00
0F00
0F00
0F00
0F00
0F00
0F00
FFE0
FFF0
FFF0
7FE0
0F00
0F00
0F00
0F00
0600
ENDCHAR
STARTCHAR bullet
ENCODING -1
SWIDTH 500 0
DWIDTH 18 0
BBX 12 12 3 6
BITMAP
1F80
3FC0
7FE0
FFF0
FFF0
FFF0
FFF0
FFF0
FFF0
7FE0
3FC0
1F00
ENDCHAR
STARTCHAR quotesinglbase
ENCODING -1
SWIDTH 222 0
DWIDTH 8 0
BBX 6 10 1 -4
BITMAP
1C
3C
3C
7C
78
78
F8
F0
F0
E0
ENDCHAR
STARTCHAR quotedblbase
ENCODING -1
SWIDTH 389 0
DWIDTH 14 0
BBX 14 10 0 -4
BITMAP
1C38
1E7C
3E7C
3E78
3CF8
7CF0
78F0
79E0
F1E0
70C0
ENDCHAR
STARTCHAR quotedblright
ENCODING -1
SWIDTH 389 0
DWIDTH 14 0
BBX 14 10 0 15
BITMAP
1C38
1E7C
3E7C
3E78
3CF8
7CF0
78F0
79E0
F1E0
70C0
ENDCHAR
STARTCHAR ellipsis
ENCODING -1
SWIDTH 1000 0
DWIDTH 36 0
BBX 29 5 3 0
BITMAP
78078078
78078078
FC0FC0F8
78078078
78078078
ENDCHAR
STARTCHAR perthousand
ENCODING -1
SWIDTH 1000 0
DWIDTH 36 0
BBX 36 25 0 0
BITMAP
1F00600000
3F80F00000
7FC0E00000
7FE1E00000
F1E1C00000
F1E3C00000
F0E7800000
F1E7800000
F1EF000000
7FEF000000
7FDE000000
3F9C000000
1F3CF80F80
0039FC1FC0
007BFE3FE0
00F7FE7FE0
00F78F78F0
01E70F70F0
01C70F70F0
03C70F70F0
03878F78F0
0787FE7FE0
0703FE3FE0
0F03FC1FC0
0600F80F80
ENDCHAR
STARTCHAR circumflex
ENCODING -1
SWIDTH 278 0
DWIDTH 10 0
BBX 10 5 0 20
BITMAP
1E00
3F00
7F80
7380
E1C0
ENDCHAR
STARTCHAR tilde
ENCODING -1
SWIDTH 278 0
DWIDTH 10 0
BBX 12 5 -1 20
BITMAP
3010
7E30
FFF0
CFE0
81C0
ENDCHAR
STARTCHAR breve
ENCODING -1
SWIDTH 278 0
DWIDTH 10 0
BBX 12 5 -1 20
BITMAP
C030
E060
7FE0
3FC0
1F80
ENDCHAR
STARTCHAR dotaccent
ENCODING -1
SWIDTH 278 0
DWIDTH 10 0
BBX 4 4 3 21
BITMAP
60
F0
F0
F0
ENDCHAR
STARTCHAR ring
ENCODING -1
SWIDTH 278 0
DWIDTH 10 0
BBX 8 8 1 20
BITMAP
3C
7E
E7
C3
C3
E7
7E
3C
ENDCHAR
STARTCHAR hungarumlaut
ENCODING -1
SWIDTH 278 0
DWIDTH 10 0
BBX 14 8 -2 19
BITMAP
0C18
1E3C
1E3C
3C78
78F0
71E0
E1C0
C180
ENDCHAR
STARTCHAR ogonek
ENCODING -1
SWIDTH 278 0
DWIDTH 10 0
BBX 8 8 1 -7
BITMAP
07
3C
70
E0
E0
E1
FF
7E
ENDCHAR
STARTCHAR caron
ENCODING -1
SWIDTH 278 0
DWIDTH 10 0
BBX 12 5 -1 20
BITMAP
F0F0
79E0
39C0
1F80
0F00
ENDCHAR
STARTCHAR emdash
ENCODING -1
SWIDTH 1000 0
DWIDTH 36 0
BBX 36 3 0 8
BITMAP
FFFFFFFFF0
FFFFFFFFF0
FFFFFFFFF0
ENDCHAR
STARTCHAR Lslash
ENCODING -1
SWIDTH 444 0
DWIDTH 16 0
BBX 17 25 -1 0
BITMAP
0E0000
0F0000
0F0000
0F0000
0F0000
0F0000
0F0000
0F0000
0F3800
0FF800
0FFC00
0FF800
3FE000
FF8000
FF0000
FF0000
2F0000
0F0000
0F0000
0F0000
0F0000
0FFF80
0FFF80
0FFF80
07FF80
ENDCHAR
STARTCHAR OE
ENCODING -1
SWIDTH 1000 0
DWIDTH 36 0
BBX 34 25 1 0
BITMAP
00FE1FFF80
03FFBFFFC0
0FFFFFFFC0
1FFFFFFF80
1F83FE0000
3F01FE0000
7E00FE0000
7C007E0000
7C007FFF80
78003FFF80
F8003FFF80
F8003FFF80
F8003E0000
F8003E0000
F8003E0000
78003E0000
7C007E0000
7C007E0000
7E00FE0000
3F01FE0000
1F83FE0000
1FFFFFFF80
0FFFFFFFC0
03FFBFFFC0
00FE1FFF80
ENDCHAR
STARTCHAR dotlessi
ENCODING -1
SWIDTH 278 0
DWIDTH 10 0
BBX 4 18 3 0
BITMAP
60
F0
F0
F0
F0
F0
F0
F0
F0
F0
F0
F0
F0
F0
F0
F0
F0
60
ENDCHAR
STARTCHAR lslash
ENCODING -1
SWIDTH 278 0
DWIDTH 10 0
BBX 12 25 -1 0
BITMAP
0600
0F00
0F00
0F00
0F00
0F00
0F00
0F00
0FE0
0FF0
0FE0
3F80
7F00
FF00
6F00
0F00
0F00
0F00
0F00
0F00
0F00
0F00
0F00
0F00
0600
ENDCHAR
STARTCHAR oe
ENCODING -1
SWIDTH 833 0
DWIDTH 30 0
BBX 29 18 1 0
BITMAP
07E03F00
1FF8FF80
3FFDFFC0
7FFFFFE0
7C3FC1F0
F81F80F0
F80F80F0
F00FFFF0
F00FFFF0
F00FFFF0
F00F8000
F80F8000
F81FC000
7C3FE000
7FFFFFF0
3FFDFFF8
1FF8FFF8
07E03FF0
ENDCHAR
STARTCHAR trademark
ENCODING -1
SWIDTH 1000 0
DWIDTH 36 0
BBX 32 15 2 10
BITMAP
FFF1F01F
FFF1F81F
FFF1F83F
0F01F83F
0F01FC7F
0F01DC77
0F01DC77
0F01CEE7
0F01CEE7
0F01CFE7
0F01C7C7
0F01C7C7
0F01C7C7
0F01C387
0F01C387
ENDCHAR
STARTCHAR minus
ENCODING -1
SWIDTH 600 0
DWIDTH 22 0
BBX 18 4 2 7
BITMAP
FFFFC0
FFFFC0
FFFFC0
FFFFC0
ENDCHAR
STARTCHAR Scaron
ENCODING -1
SWIDTH 611 0
DWIDTH 22 0
BBX 20 32 1 0
BITMAP
020200
078F00
03DE00
01DC00
00F800
007000
000000
0FFF80
3FFF80
7FFF80
7FFF80
FC0000
F80000
F80000
7F0000
7FF000
3FFE00
1FFF80
07FFC0
003FE0
0007E0
0003E0
0001F0
0001F0
0001F0
0003E0
0003E0
001FE0
FFFFC0
FFFF80
FFFF00
7FFC00
ENDCHAR
STARTCHAR Ydieresis
ENCODING -1
SWIDTH 556 0
DWIDTH 20 0
BBX 18 30 1 0
BITMAP
0E0E00
1F1F00
1E1F00
0E0E00
000000
E001C0
F003C0
F003C0
F807C0
F807C0
FC0FC0
7C0F80
3E1F00
3F3F00
1FFE00
0FFC00
07F800
03F000
01E000
01E000
01E000
01E000
01E000
01E000
01E000
01E000
01E000
01E000
01E000
01E000
ENDCHAR
STARTCHAR Zcaron
ENCODING -1
SWIDTH 500 0
DWIDTH 18 0
BBX 16 32 1 0
BITMAP
0808
1E3C
0F78
0770
03E0
01C0
0000
3FFE
7FFF
7FFF
7FFF
001F
001F
003E
003E
007C
00FC
01F8
03F0
07E0
0FC0
1F80
3F00
7E00
7C00
F800
F800
F000
FFFF
FFFF
FFFF
7FFF
ENDCHAR
STARTCHAR scaron
ENCODING -1
SWIDTH 500 0
DWIDTH 18 0
BBX 16 25 1 0
BITMAP
3C3C
1E78
0EF0
07E0
03C0
0000
0000
1FFC
7FFE
7FFE
FFFC
F800
F800
7FC0
7FF8
3FFE
0FFE
003F
000F
000F
001F
7FFF
FFFE
FFFC
7FF0
ENDCHAR
STARTCHAR zcaron
ENCODING -1
SWIDTH 444 0
DWIDTH 16 0
BBX 14 25 1 0
BITMAP
7878
3CF0
1DE0
0FC0
0780
0000
0000
7FF8
FFFC
7FFC
7FFC
00FC
00F8
03F0
07F0
0FE0
1F80
3F00
7E00
FC00
F800
FFFC
FFFC
FFFC
FFFC
ENDCHAR
STARTCHAR Delta
ENCODING -1
SWIDTH 709 0
DWIDTH 26 0
BBX 24 25 1 0
BITMAP
007E00
007E00
00FE00
00FF00
01EF00
01EF80
01E780
03C780
03C7C0
07C3C0
0783E0
0783E0
0F01E0
0F01F0
1F00F0
1E00F8
3E0078
3C0078
3C007C
78003C
78003E
F8001E
FFFFFE
FFFFFF
FFFFFF
ENDCHAR
STARTCHAR Omega
ENCODING -1
SWIDTH 786 0
DWIDTH 28 0
BBX 25 24 2 0
BITMAP
01FF8000
07FFE000
0FFFF000
1FC1F800
3F007C00
7E003E00
7C003E00
78001F00
F8001F00
F8001F00
F8000F00
F8000F00
F8000F00
F8000F00
78001E00
78001E00
3C001E00
3C003C00
1E003800
0E007000
0700E000
FFC3FF80
FFC3FF80
FFC3FF80
ENDCHAR
STARTCHAR pi
ENCODING -1
SWIDTH 641 0
DWIDTH 23 0
BBX 22 18 0 0
BITMAP
3FFFFC
FFFFFC
FFFFFC
7FFFFC
0781E0
0781E0
0F81E0
0F81E0
0F81E0
0F01E0
0F01E0
0F01E0
0F01E0
1F01E0
1F01E0
1E01E0
1E01E0
3E01F0
ENDCHAR
STARTCHAR Euro
ENCODING -1
SWIDTH 611 0
DWIDTH 22 0
BBX 21 25 1 0
BITMAP
00FFF0
03FFF0
07FFF0
0FFFF0
0FE000
1F8000
1F0000
FFFE00
FFFE00
FFFE00
3FF800
3E0000
FFFE00
FFFE00
FFFE00
3FF800
0F8000
0FC000
07E000
07F800
03FFC0
01FFF0
007FF8
003FF0
0007F0
ENDCHAR
STARTCHAR estimated
ENCODING -1
SWIDTH 844 0
DWIDTH 30 0
BBX 28 25 1 0
BITMAP
003FC000
01C03800
03000E00
0E000300
1C000180
180001C0
380001C0
780001E0
780001E0
780001F0
F80001F0
F80001F0
FFFFFFF0
F8000000
F8000000
78000000
78000000
78000000
38000000
18000000
1C000180
0E000300
03000E00
01C03800
003FC000
ENDCHAR
STARTCHAR partialdiff
ENCODING -1
SWIDTH 610 0
DWIDTH 22 0
BBX 19 27 1 0
BITMAP
0FF800
3FFC00
3FFF00
383F00
000F80
0007C0
0003C0
0003C0
0003E0
0001E0
07F1E0
0FF9E0
3FFDE0
3F0FE0
7C07E0
7C03E0
7803E0
F803E0
F803C0
F803C0
7807C0
780F80
7C0F80
3F3F00
1FFE00
0FFC00
07F000
ENDCHAR
STARTCHAR product
ENCODING -1
SWIDTH 767 0
DWIDTH 28 0
BBX 26 28 1 -4
BITMAP
FFFFFFC0
FFFFFFC0
FFFFFFC0
FFFFFFC0
0F007C00
0F007C00
0F007C00
0F007C00
0F007C00
0F007C00
0F007C00
0F007C00
0F007C00
0F007C00
0F007C00
0F007C00
0F007C00
0F007C00
0F007C00
0F007C00
0F007C00
0F007C00
0F007C00
0F007C00
0F007C00
0F007C00
0F007C00
0F007C00
ENDCHAR
STARTCHAR summation
ENCODING -1
SWIDTH 602 0
DWIDTH 22 0
BBX 20 27 1 -3
BITMAP
FFFFE0
FFFFE0
FFFFE0
7FFFE0
3E0000
3F0000
1F8000
0FC000
07C000
03E000
01F000
00F800
007C00
007C00
007800
00F000
01E000
03C000
07C000
0F8000
1F0000
3E0000
3C0000
7FFFF0
FFFFF0
FFFFF0
FFFFF0
ENDCHAR
STARTCHAR uni2219
ENCODING -1
SWIDTH 305 0
DWIDTH 11 0
BBX 5 5 3 7
BITMAP
70
F8
F8
F8
70
ENDCHAR
STARTCHAR radical
ENCODING -1
SWIDTH 626 0
DWIDTH 23 0
BBX 22 34 1 -5
BITMAP
00001C
00001C
000038
000038
000038
000078
000070
000070
000070
0000F0
0000E0
0000E0
0000E0
0001C0
0001C0
0601C0
3E01C0
FE0380
FF0380
0F0380
0F0380
078700
078700
038700
03C700
03CE00
01EE00
01EE00
00EE00
00EC00
00FC00
007C00
007C00
003800
ENDCHAR
STARTCHAR infinity
ENCODING -1
SWIDTH 799 0
DWIDTH 29 0
BBX 25 12 2 4
BITMAP
1F80FC00
3FC1FE00
70E38700
E0770380
C03E0380
C01C0380
C01C0380
C03E0380
E0770300
79E3CF00
3FC1FE00
1F007C00
ENDCHAR
STARTCHAR integral
ENCODING -1
SWIDTH 395 0
DWIDTH 14 0
BBX 12 36 1 -6
BITMAP
00F0
03F0
07F0
0780
0700
0F00
0F00
0F00
0F00
0F00
0F00
0F00
0F00
0F00
0F00
0F00
0F00
0F00
0F00
0F00
0F00
0F00
0700
0700
0700
0700
0700
0700
0700
0F00
0F00
0F00
1E00
FE00
FC00
F800
ENDCHAR
STARTCHAR approxequal
ENCODING -1
SWIDTH 590 0
DWIDTH 21 0
BBX 18 12 2 4
BITMAP
1E0080
7F81C0
FFE380
E1FF00
C07E00
000000
000000
3F0180
7FC180
E3F780
C0FF00
003E00
ENDCHAR
STARTCHAR notequal
ENCODING -1
SWIDTH 590 0
DWIDTH 21 0
BBX 17 18 2 1
BITMAP
001800
001800
003800
003000
FFFF80
FFFF80
00E000
00C000
00C000
01C000
018000
038000
FFFF80
FFFF80
060000
0E0000
0C0000
0C0000
ENDCHAR
STARTCHAR lessequal
ENCODING -1
SWIDTH 590 0
DWIDTH 21 0
BBX 17 22 2 0
BITMAP
000080
000380
001F80
007E00
01F800
07E000
1F8000
7C0000
F00000
E00000
FC0000
3F0000
0FC000
03F000
007C00
001F80
000780
000180
000000
000000
FFFF80
FFFF80
ENDCHAR
STARTCHAR greaterequal
ENCODING -1
SWIDTH 590 0
DWIDTH 21 0
BBX 17 22 2 0
BITMAP
C00000
F00000
FC0000
3F0000
0FC000
03F000
007C00
001F80
000780
000380
000F80
003E00
01F800
07E000
1F8000
7E0000
F80000
C00000
000000
000000
FFFF80
FFFF80
ENDCHAR
STARTCHAR lozenge
ENCODING -1
SWIDTH 626 0
DWIDTH 23 0
BBX 18 28 2 -2
BITMAP
01E000
01F000
03F000
03F800
07B800
073C00
0F1E00
1E1E00
1E0F00
3C0F00
3C0780
780780
7003C0
F001C0
F001C0
7003C0
780380
3C0780
3C0F00
1E0F00
1E1E00
0F1C00
0F3C00
07B800
03F800
03F000
01F000
01E000
ENDCHAR
STARTCHAR uni02C9
ENCODING -1
SWIDTH 278 0
DWIDTH 10 0
BBX 10 3 0 21
BITMAP
FFC0
FFC0
FFC0
ENDCHAR
STARTCHAR uni03A9
ENCODING -1
SWIDTH 786 0
DWIDTH 28 0
BBX 25 24 2 0
BITMAP
01FF8000
07FFE000
0FFFF000
1FC1F800
3F007C00
7E003E00
7C003E00
78001F00
F8001F00
F8001F00
F8000F00
F8000F00
F8000F00
F8000F00
78001E00
78001E00
3C001E00
3C003C00
1E003800
0E007000
0700E000
FFC3FF80
FFC3FF80
FFC3FF80
ENDCHAR
STARTCHAR afii61289
ENCODING -1
SWIDTH 552 0
DWIDTH 20 0
BBX 18 27 1 0
BITMAP
01F000
03FC00
07FC00
0F9E00
0F0E00
1F0E00
1E0E00
1E0E00
1E0E00
1E1E00
1E1C00
1E3C00
1E7800
1EF000
1EE000
1FE000
1FC000
1F0000
3E0000
7E0000
FE0000
5F0180
1F03C0
0FCF80
0FFF00
07FE00
01F800
ENDCHAR
STARTCHAR uni03BC
ENCODING -1
SWIDTH 556 0
DWIDTH 20 0
BBX 16 25 2 -7
BITMAP
700E
F00F
F81F
F81F
F81F
F81F
F81F
F81F
F81F
F81F
F81F
F81F
F81F
FC3F
FFFF
FFFF
FFFF
FF8E
F800
F800
F800
F800
F800
F000
7000
ENDCHAR
STARTCHAR uni2215
ENCODING -1
SWIDTH 167 0
DWIDTH 6 0
BBX 18 25 -6 0
BITMAP
0001C0
0003C0
0007C0
0007C0
000F80
001F00
001F00
003E00
007C00
007800
00F800
01F000
01E000
03E000
07C000
078000
0F8000
1F0000
3E0000
3E0000
7C0000
F80000
F80000
F00000
E00000
ENDCHAR
ENDFONT
